<svg xmlns="http://www.w3.org/2000/svg" width="964.05" height="963.05" viewBox="0 0 964.05 963.05"><g id="Layer_2" data-name="Layer 2"><g id="Layer_1-2" data-name="Layer 1"><polygon points="51.05 19.85 31.19 19.85 31.19 0 19.85 0 19.85 19.85 0 19.85 0 31.19 19.85 31.19 19.85 51.05 31.19 51.05 31.19 31.19 51.05 31.19 51.05 19.85" style="fill:#ffffff0a"/><polygon points="122.05 19.85 102.19 19.85 102.19 0 90.85 0 90.85 19.85 71 19.85 71 31.19 90.85 31.19 90.85 51.05 102.19 51.05 102.19 31.19 122.05 31.19 122.05 19.85" style="fill:#ffffff0a"/><polygon points="192.04 19.85 172.19 19.85 172.19 0 160.85 0 160.85 19.85 141 19.85 141 31.19 160.85 31.19 160.85 51.05 172.19 51.05 172.19 31.19 192.04 31.19 192.04 19.85" style="fill:#ffffff0a"/><polygon points="263.05 19.85 243.19 19.85 243.19 0 231.85 0 231.85 19.85 212 19.85 212 31.19 231.85 31.19 231.85 51.05 243.19 51.05 243.19 31.19 263.05 31.19 263.05 19.85" style="fill:#ffffff0a"/><polygon points="332.05 19.85 312.19 19.85 312.19 0 300.85 0 300.85 19.85 281 19.85 281 31.19 300.85 31.19 300.85 51.05 312.19 51.05 312.19 31.19 332.05 31.19 332.05 19.85" style="fill:#ffffff0a"/><polygon points="403.05 19.85 383.19 19.85 383.19 0 371.85 0 371.85 19.85 352 19.85 352 31.19 371.85 31.19 371.85 51.05 383.19 51.05 383.19 31.19 403.05 31.19 403.05 19.85" style="fill:#ffffff0a"/><polygon points="473.05 19.85 453.19 19.85 453.19 0 441.85 0 441.85 19.85 422 19.85 422 31.19 441.85 31.19 441.85 51.05 453.19 51.05 453.19 31.19 473.05 31.19 473.05 19.85" style="fill:#ffffff0a"/><polygon points="544.04 19.85 524.19 19.85 524.19 0 512.85 0 512.85 19.85 493 19.85 493 31.19 512.85 31.19 512.85 51.05 524.19 51.05 524.19 31.19 544.04 31.19 544.04 19.85" style="fill:#ffffff0a"/><polygon points="612.04 19.85 592.19 19.85 592.19 0 580.85 0 580.85 19.85 561 19.85 561 31.19 580.85 31.19 580.85 51.05 592.19 51.05 592.19 31.19 612.04 31.19 612.04 19.85" style="fill:#ffffff0a"/><polygon points="683.04 19.85 663.19 19.85 663.19 0 651.85 0 651.85 19.85 632 19.85 632 31.19 651.85 31.19 651.85 51.05 663.19 51.05 663.19 31.19 683.04 31.19 683.04 19.85" style="fill:#ffffff0a"/><polygon points="753.04 19.85 733.19 19.85 733.19 0 721.85 0 721.85 19.85 702 19.85 702 31.19 721.85 31.19 721.85 51.05 733.19 51.05 733.19 31.19 753.04 31.19 753.04 19.85" style="fill:#ffffff0a"/><polygon points="824.04 19.85 804.19 19.85 804.19 0 792.85 0 792.85 19.85 773 19.85 773 31.19 792.85 31.19 792.85 51.05 804.19 51.05 804.19 31.19 824.04 31.19 824.04 19.85" style="fill:#ffffff0a"/><polygon points="893.04 19.85 873.19 19.85 873.19 0 861.85 0 861.85 19.85 842 19.85 842 31.19 861.85 31.19 861.85 51.05 873.19 51.05 873.19 31.19 893.04 31.19 893.04 19.85" style="fill:#ffffff0a"/><polygon points="964.04 19.85 944.19 19.85 944.19 0 932.85 0 932.85 19.85 913 19.85 913 31.19 932.85 31.19 932.85 51.05 944.19 51.05 944.19 31.19 964.04 31.19 964.04 19.85" style="fill:#ffffff0a"/><polygon points="51.05 89.85 31.19 89.85 31.19 70 19.85 70 19.85 89.85 0 89.85 0 101.19 19.85 101.19 19.85 121.05 31.19 121.05 31.19 101.19 51.05 101.19 51.05 89.85" style="fill:#ffffff0a"/><polygon points="122.05 89.85 102.19 89.85 102.19 70 90.85 70 90.85 89.85 71 89.85 71 101.19 90.85 101.19 90.85 121.05 102.19 121.05 102.19 101.19 122.05 101.19 122.05 89.85" style="fill:#ffffff0a"/><polygon points="192.04 89.85 172.19 89.85 172.19 70 160.85 70 160.85 89.85 141 89.85 141 101.19 160.85 101.19 160.85 121.05 172.19 121.05 172.19 101.19 192.04 101.19 192.04 89.85" style="fill:#ffffff0a"/><polygon points="263.05 89.85 243.19 89.85 243.19 70 231.85 70 231.85 89.85 212 89.85 212 101.19 231.85 101.19 231.85 121.05 243.19 121.05 243.19 101.19 263.05 101.19 263.05 89.85" style="fill:#ffffff0a"/><polygon points="332.05 89.85 312.19 89.85 312.19 70 300.85 70 300.85 89.85 281 89.85 281 101.19 300.85 101.19 300.85 121.05 312.19 121.05 312.19 101.19 332.05 101.19 332.05 89.85" style="fill:#ffffff0a"/><polygon points="403.05 89.85 383.19 89.85 383.19 70 371.85 70 371.85 89.85 352 89.85 352 101.19 371.85 101.19 371.85 121.05 383.19 121.05 383.19 101.19 403.05 101.19 403.05 89.85" style="fill:#ffffff0a"/><polygon points="473.05 89.85 453.19 89.85 453.19 70 441.85 70 441.85 89.85 422 89.85 422 101.19 441.85 101.19 441.85 121.05 453.19 121.05 453.19 101.19 473.05 101.19 473.05 89.85" style="fill:#ffffff0a"/><polygon points="544.04 89.85 524.19 89.85 524.19 70 512.85 70 512.85 89.85 493 89.85 493 101.19 512.85 101.19 512.85 121.05 524.19 121.05 524.19 101.19 544.04 101.19 544.04 89.85" style="fill:#ffffff0a"/><polygon points="612.04 89.85 592.19 89.85 592.19 70 580.85 70 580.85 89.85 561 89.85 561 101.19 580.85 101.19 580.85 121.05 592.19 121.05 592.19 101.19 612.04 101.19 612.04 89.85" style="fill:#ffffff0a"/><polygon points="683.04 89.85 663.19 89.85 663.19 70 651.85 70 651.85 89.85 632 89.85 632 101.19 651.85 101.19 651.85 121.05 663.19 121.05 663.19 101.19 683.04 101.19 683.04 89.85" style="fill:#ffffff0a"/><polygon points="753.04 89.85 733.19 89.85 733.19 70 721.85 70 721.85 89.85 702 89.85 702 101.19 721.85 101.19 721.85 121.05 733.19 121.05 733.19 101.19 753.04 101.19 753.04 89.85" style="fill:#ffffff0a"/><polygon points="824.04 89.85 804.19 89.85 804.19 70 792.85 70 792.85 89.85 773 89.85 773 101.19 792.85 101.19 792.85 121.05 804.19 121.05 804.19 101.19 824.04 101.19 824.04 89.85" style="fill:#ffffff0a"/><polygon points="893.04 89.85 873.19 89.85 873.19 70 861.85 70 861.85 89.85 842 89.85 842 101.19 861.85 101.19 861.85 121.05 873.19 121.05 873.19 101.19 893.04 101.19 893.04 89.85" style="fill:#ffffff0a"/><polygon points="964.04 89.85 944.19 89.85 944.19 70 932.85 70 932.85 89.85 913 89.85 913 101.19 932.85 101.19 932.85 121.05 944.19 121.05 944.19 101.19 964.04 101.19 964.04 89.85" style="fill:#ffffff0a"/><polygon points="51.05 160.85 31.19 160.85 31.19 141 19.85 141 19.85 160.85 0 160.85 0 172.19 19.85 172.19 19.85 192.04 31.19 192.04 31.19 172.19 51.05 172.19 51.05 160.85" style="fill:#ffffff0a"/><polygon points="122.05 160.85 102.19 160.85 102.19 141 90.85 141 90.85 160.85 71 160.85 71 172.19 90.85 172.19 90.85 192.04 102.19 192.04 102.19 172.19 122.05 172.19 122.05 160.85" style="fill:#ffffff0a"/><polygon points="192.04 160.85 172.19 160.85 172.19 141 160.85 141 160.85 160.85 141 160.85 141 172.19 160.85 172.19 160.85 192.04 172.19 192.04 172.19 172.19 192.04 172.19 192.04 160.85" style="fill:#ffffff0a"/><polygon points="263.05 160.85 243.19 160.85 243.19 141 231.85 141 231.85 160.85 212 160.85 212 172.19 231.85 172.19 231.85 192.04 243.19 192.04 243.19 172.19 263.05 172.19 263.05 160.85" style="fill:#ffffff0a"/><polygon points="332.05 160.85 312.19 160.85 312.19 141 300.85 141 300.85 160.85 281 160.85 281 172.19 300.85 172.19 300.85 192.04 312.19 192.04 312.19 172.19 332.05 172.19 332.05 160.85" style="fill:#ffffff0a"/><polygon points="403.05 160.85 383.19 160.85 383.19 141 371.85 141 371.85 160.85 352 160.85 352 172.19 371.85 172.19 371.85 192.04 383.19 192.04 383.19 172.19 403.05 172.19 403.05 160.85" style="fill:#ffffff0a"/><polygon points="473.05 160.85 453.19 160.85 453.19 141 441.85 141 441.85 160.85 422 160.85 422 172.19 441.85 172.19 441.85 192.04 453.19 192.04 453.19 172.19 473.05 172.19 473.05 160.85" style="fill:#ffffff0a"/><polygon points="544.04 160.85 524.19 160.85 524.19 141 512.85 141 512.85 160.85 493 160.85 493 172.19 512.85 172.19 512.85 192.04 524.19 192.04 524.19 172.19 544.04 172.19 544.04 160.85" style="fill:#ffffff0a"/><polygon points="612.04 160.85 592.19 160.85 592.19 141 580.85 141 580.85 160.85 561 160.85 561 172.19 580.85 172.19 580.85 192.04 592.19 192.04 592.19 172.19 612.04 172.19 612.04 160.85" style="fill:#ffffff0a"/><polygon points="683.04 160.85 663.19 160.85 663.19 141 651.85 141 651.85 160.85 632 160.85 632 172.19 651.85 172.19 651.85 192.04 663.19 192.04 663.19 172.19 683.04 172.19 683.04 160.85" style="fill:#ffffff0a"/><polygon points="753.04 160.85 733.19 160.85 733.19 141 721.85 141 721.85 160.85 702 160.85 702 172.19 721.85 172.19 721.85 192.04 733.19 192.04 733.19 172.19 753.04 172.19 753.04 160.85" style="fill:#ffffff0a"/><polygon points="824.04 160.85 804.19 160.85 804.19 141 792.85 141 792.85 160.85 773 160.85 773 172.19 792.85 172.19 792.85 192.04 804.19 192.04 804.19 172.19 824.04 172.19 824.04 160.85" style="fill:#ffffff0a"/><polygon points="893.04 160.85 873.19 160.85 873.19 141 861.85 141 861.85 160.85 842 160.85 842 172.19 861.85 172.19 861.85 192.04 873.19 192.04 873.19 172.19 893.04 172.19 893.04 160.85" style="fill:#ffffff0a"/><polygon points="964.04 160.85 944.19 160.85 944.19 141 932.85 141 932.85 160.85 913 160.85 913 172.19 932.85 172.19 932.85 192.04 944.19 192.04 944.19 172.19 964.04 172.19 964.04 160.85" style="fill:#ffffff0a"/><polygon points="51.05 230.85 31.19 230.85 31.19 211 19.85 211 19.85 230.85 0 230.85 0 242.19 19.85 242.19 19.85 262.05 31.19 262.05 31.19 242.19 51.05 242.19 51.05 230.85" style="fill:#ffffff0a"/><polygon points="122.05 230.85 102.19 230.85 102.19 211 90.85 211 90.85 230.85 71 230.85 71 242.19 90.85 242.19 90.85 262.05 102.19 262.05 102.19 242.19 122.05 242.19 122.05 230.85" style="fill:#ffffff0a"/><polygon points="192.04 230.85 172.19 230.85 172.19 211 160.85 211 160.85 230.85 141 230.85 141 242.19 160.85 242.19 160.85 262.05 172.19 262.05 172.19 242.19 192.04 242.19 192.04 230.85" style="fill:#ffffff0a"/><polygon points="263.05 230.85 243.19 230.85 243.19 211 231.85 211 231.85 230.85 212 230.85 212 242.19 231.85 242.19 231.85 262.05 243.19 262.05 243.19 242.19 263.05 242.19 263.05 230.85" style="fill:#ffffff0a"/><polygon points="332.05 230.85 312.19 230.85 312.19 211 300.85 211 300.85 230.85 281 230.85 281 242.19 300.85 242.19 300.85 262.05 312.19 262.05 312.19 242.19 332.05 242.19 332.05 230.85" style="fill:#ffffff0a"/><polygon points="403.05 230.85 383.19 230.85 383.19 211 371.85 211 371.85 230.85 352 230.85 352 242.19 371.85 242.19 371.85 262.05 383.19 262.05 383.19 242.19 403.05 242.19 403.05 230.85" style="fill:#ffffff0a"/><polygon points="473.05 230.85 453.19 230.85 453.19 211 441.85 211 441.85 230.85 422 230.85 422 242.19 441.85 242.19 441.85 262.05 453.19 262.05 453.19 242.19 473.05 242.19 473.05 230.85" style="fill:#ffffff0a"/><polygon points="544.04 230.85 524.19 230.85 524.19 211 512.85 211 512.85 230.85 493 230.85 493 242.19 512.85 242.19 512.85 262.05 524.19 262.05 524.19 242.19 544.04 242.19 544.04 230.85" style="fill:#ffffff0a"/><polygon points="612.04 230.85 592.19 230.85 592.19 211 580.85 211 580.85 230.85 561 230.85 561 242.19 580.85 242.19 580.85 262.05 592.19 262.05 592.19 242.19 612.04 242.19 612.04 230.85" style="fill:#ffffff0a"/><polygon points="683.04 230.85 663.19 230.85 663.19 211 651.85 211 651.85 230.85 632 230.85 632 242.19 651.85 242.19 651.85 262.05 663.19 262.05 663.19 242.19 683.04 242.19 683.04 230.85" style="fill:#ffffff0a"/><polygon points="753.04 230.85 733.19 230.85 733.19 211 721.85 211 721.85 230.85 702 230.85 702 242.19 721.85 242.19 721.85 262.05 733.19 262.05 733.19 242.19 753.04 242.19 753.04 230.85" style="fill:#ffffff0a"/><polygon points="824.04 230.85 804.19 230.85 804.19 211 792.85 211 792.85 230.85 773 230.85 773 242.19 792.85 242.19 792.85 262.05 804.19 262.05 804.19 242.19 824.04 242.19 824.04 230.85" style="fill:#ffffff0a"/><polygon points="893.04 230.85 873.19 230.85 873.19 211 861.85 211 861.85 230.85 842 230.85 842 242.19 861.85 242.19 861.85 262.05 873.19 262.05 873.19 242.19 893.04 242.19 893.04 230.85" style="fill:#ffffff0a"/><polygon points="964.04 230.85 944.19 230.85 944.19 211 932.85 211 932.85 230.85 913 230.85 913 242.19 932.85 242.19 932.85 262.05 944.19 262.05 944.19 242.19 964.04 242.19 964.04 230.85" style="fill:#ffffff0a"/><polygon points="51.05 300.85 31.19 300.85 31.19 281 19.85 281 19.85 300.85 0 300.85 0 312.19 19.85 312.19 19.85 332.05 31.19 332.05 31.19 312.19 51.05 312.19 51.05 300.85" style="fill:#ffffff0a"/><polygon points="122.05 300.85 102.19 300.85 102.19 281 90.85 281 90.85 300.85 71 300.85 71 312.19 90.85 312.19 90.85 332.05 102.19 332.05 102.19 312.19 122.05 312.19 122.05 300.85" style="fill:#ffffff0a"/><polygon points="192.04 300.85 172.19 300.85 172.19 281 160.85 281 160.85 300.85 141 300.85 141 312.19 160.85 312.19 160.85 332.05 172.19 332.05 172.19 312.19 192.04 312.19 192.04 300.85" style="fill:#ffffff0a"/><polygon points="263.05 300.85 243.19 300.85 243.19 281 231.85 281 231.85 300.85 212 300.85 212 312.19 231.85 312.19 231.85 332.05 243.19 332.05 243.19 312.19 263.05 312.19 263.05 300.85" style="fill:#ffffff0a"/><polygon points="332.05 300.85 312.19 300.85 312.19 281 300.85 281 300.85 300.85 281 300.85 281 312.19 300.85 312.19 300.85 332.05 312.19 332.05 312.19 312.19 332.05 312.19 332.05 300.85" style="fill:#ffffff0a"/><polygon points="403.05 300.85 383.19 300.85 383.19 281 371.85 281 371.85 300.85 352 300.85 352 312.19 371.85 312.19 371.85 332.05 383.19 332.05 383.19 312.19 403.05 312.19 403.05 300.85" style="fill:#ffffff0a"/><polygon points="473.05 300.85 453.19 300.85 453.19 281 441.85 281 441.85 300.85 422 300.85 422 312.19 441.85 312.19 441.85 332.05 453.19 332.05 453.19 312.19 473.05 312.19 473.05 300.85" style="fill:#ffffff0a"/><polygon points="544.04 300.85 524.19 300.85 524.19 281 512.85 281 512.85 300.85 493 300.85 493 312.19 512.85 312.19 512.85 332.05 524.19 332.05 524.19 312.19 544.04 312.19 544.04 300.85" style="fill:#ffffff0a"/><polygon points="612.04 300.85 592.19 300.85 592.19 281 580.85 281 580.85 300.85 561 300.85 561 312.19 580.85 312.19 580.85 332.05 592.19 332.05 592.19 312.19 612.04 312.19 612.04 300.85" style="fill:#ffffff0a"/><polygon points="683.04 300.85 663.19 300.85 663.19 281 651.85 281 651.85 300.85 632 300.85 632 312.19 651.85 312.19 651.85 332.05 663.19 332.05 663.19 312.19 683.04 312.19 683.04 300.85" style="fill:#ffffff0a"/><polygon points="753.04 300.85 733.19 300.85 733.19 281 721.85 281 721.85 300.85 702 300.85 702 312.19 721.85 312.19 721.85 332.05 733.19 332.05 733.19 312.19 753.04 312.19 753.04 300.85" style="fill:#ffffff0a"/><polygon points="824.04 300.85 804.19 300.85 804.19 281 792.85 281 792.85 300.85 773 300.85 773 312.19 792.85 312.19 792.85 332.05 804.19 332.05 804.19 312.19 824.04 312.19 824.04 300.85" style="fill:#ffffff0a"/><polygon points="893.04 300.85 873.19 300.85 873.19 281 861.85 281 861.85 300.85 842 300.85 842 312.19 861.85 312.19 861.85 332.05 873.19 332.05 873.19 312.19 893.04 312.19 893.04 300.85" style="fill:#ffffff0a"/><polygon points="964.04 300.85 944.19 300.85 944.19 281 932.85 281 932.85 300.85 913 300.85 913 312.19 932.85 312.19 932.85 332.05 944.19 332.05 944.19 312.19 964.04 312.19 964.04 300.85" style="fill:#ffffff0a"/><polygon points="51.05 370.85 31.19 370.85 31.19 351 19.85 351 19.85 370.85 0 370.85 0 382.19 19.85 382.19 19.85 402.05 31.19 402.05 31.19 382.19 51.05 382.19 51.05 370.85" style="fill:#ffffff0a"/><polygon points="122.05 370.85 102.19 370.85 102.19 351 90.85 351 90.85 370.85 71 370.85 71 382.19 90.85 382.19 90.85 402.05 102.19 402.05 102.19 382.19 122.05 382.19 122.05 370.85" style="fill:#ffffff0a"/><polygon points="192.04 370.85 172.19 370.85 172.19 351 160.85 351 160.85 370.85 141 370.85 141 382.19 160.85 382.19 160.85 402.05 172.19 402.05 172.19 382.19 192.04 382.19 192.04 370.85" style="fill:#ffffff0a"/><polygon points="263.05 370.85 243.19 370.85 243.19 351 231.85 351 231.85 370.85 212 370.85 212 382.19 231.85 382.19 231.85 402.05 243.19 402.05 243.19 382.19 263.05 382.19 263.05 370.85" style="fill:#ffffff0a"/><polygon points="332.05 370.85 312.19 370.85 312.19 351 300.85 351 300.85 370.85 281 370.85 281 382.19 300.85 382.19 300.85 402.05 312.19 402.05 312.19 382.19 332.05 382.19 332.05 370.85" style="fill:#ffffff0a"/><polygon points="403.05 370.85 383.19 370.85 383.19 351 371.85 351 371.85 370.85 352 370.85 352 382.19 371.85 382.19 371.85 402.05 383.19 402.05 383.19 382.19 403.05 382.19 403.05 370.85" style="fill:#ffffff0a"/><polygon points="473.05 370.85 453.19 370.85 453.19 351 441.85 351 441.85 370.85 422 370.85 422 382.19 441.85 382.19 441.85 402.05 453.19 402.05 453.19 382.19 473.05 382.19 473.05 370.85" style="fill:#ffffff0a"/><polygon points="544.04 370.85 524.19 370.85 524.19 351 512.85 351 512.85 370.85 493 370.85 493 382.19 512.85 382.19 512.85 402.05 524.19 402.05 524.19 382.19 544.04 382.19 544.04 370.85" style="fill:#ffffff0a"/><polygon points="612.04 370.85 592.19 370.85 592.19 351 580.85 351 580.85 370.85 561 370.85 561 382.19 580.85 382.19 580.85 402.05 592.19 402.05 592.19 382.19 612.04 382.19 612.04 370.85" style="fill:#ffffff0a"/><polygon points="683.04 370.85 663.19 370.85 663.19 351 651.85 351 651.85 370.85 632 370.85 632 382.19 651.85 382.19 651.85 402.05 663.19 402.05 663.19 382.19 683.04 382.19 683.04 370.85" style="fill:#ffffff0a"/><polygon points="753.04 370.85 733.19 370.85 733.19 351 721.85 351 721.85 370.85 702 370.85 702 382.19 721.85 382.19 721.85 402.05 733.19 402.05 733.19 382.19 753.04 382.19 753.04 370.85" style="fill:#ffffff0a"/><polygon points="824.04 370.85 804.19 370.85 804.19 351 792.85 351 792.85 370.85 773 370.85 773 382.19 792.85 382.19 792.85 402.05 804.19 402.05 804.19 382.19 824.04 382.19 824.04 370.85" style="fill:#ffffff0a"/><polygon points="893.04 370.85 873.19 370.85 873.19 351 861.85 351 861.85 370.85 842 370.85 842 382.19 861.85 382.19 861.85 402.05 873.19 402.05 873.19 382.19 893.04 382.19 893.04 370.85" style="fill:#ffffff0a"/><polygon points="964.04 370.85 944.19 370.85 944.19 351 932.85 351 932.85 370.85 913 370.85 913 382.19 932.85 382.19 932.85 402.05 944.19 402.05 944.19 382.19 964.04 382.19 964.04 370.85" style="fill:#ffffff0a"/><polygon points="51.05 441.85 31.19 441.85 31.19 422 19.85 422 19.85 441.85 0 441.85 0 453.19 19.85 453.19 19.85 473.05 31.19 473.05 31.19 453.19 51.05 453.19 51.05 441.85" style="fill:#ffffff0a"/><polygon points="122.05 441.85 102.19 441.85 102.19 422 90.85 422 90.85 441.85 71 441.85 71 453.19 90.85 453.19 90.85 473.05 102.19 473.05 102.19 453.19 122.05 453.19 122.05 441.85" style="fill:#ffffff0a"/><polygon points="192.04 441.85 172.19 441.85 172.19 422 160.85 422 160.85 441.85 141 441.85 141 453.19 160.85 453.19 160.85 473.05 172.19 473.05 172.19 453.19 192.04 453.19 192.04 441.85" style="fill:#ffffff0a"/><polygon points="263.05 441.85 243.19 441.85 243.19 422 231.85 422 231.85 441.85 212 441.85 212 453.19 231.85 453.19 231.85 473.05 243.19 473.05 243.19 453.19 263.05 453.19 263.05 441.85" style="fill:#ffffff0a"/><polygon points="332.05 441.85 312.19 441.85 312.19 422 300.85 422 300.85 441.85 281 441.85 281 453.19 300.85 453.19 300.85 473.05 312.19 473.05 312.19 453.19 332.05 453.19 332.05 441.85" style="fill:#ffffff0a"/><polygon points="403.05 441.85 383.19 441.85 383.19 422 371.85 422 371.85 441.85 352 441.85 352 453.19 371.85 453.19 371.85 473.05 383.19 473.05 383.19 453.19 403.05 453.19 403.05 441.85" style="fill:#ffffff0a"/><polygon points="473.05 441.85 453.19 441.85 453.19 422 441.85 422 441.85 441.85 422 441.85 422 453.19 441.85 453.19 441.85 473.05 453.19 473.05 453.19 453.19 473.05 453.19 473.05 441.85" style="fill:#ffffff0a"/><polygon points="544.04 441.85 524.19 441.85 524.19 422 512.85 422 512.85 441.85 493 441.85 493 453.19 512.85 453.19 512.85 473.05 524.19 473.05 524.19 453.19 544.04 453.19 544.04 441.85" style="fill:#ffffff0a"/><polygon points="612.04 441.85 592.19 441.85 592.19 422 580.85 422 580.85 441.85 561 441.85 561 453.19 580.85 453.19 580.85 473.05 592.19 473.05 592.19 453.19 612.04 453.19 612.04 441.85" style="fill:#ffffff0a"/><polygon points="683.04 441.85 663.19 441.85 663.19 422 651.85 422 651.85 441.85 632 441.85 632 453.19 651.85 453.19 651.85 473.05 663.19 473.05 663.19 453.19 683.04 453.19 683.04 441.85" style="fill:#ffffff0a"/><polygon points="753.04 441.85 733.19 441.85 733.19 422 721.85 422 721.85 441.85 702 441.85 702 453.19 721.85 453.19 721.85 473.05 733.19 473.05 733.19 453.19 753.04 453.19 753.04 441.85" style="fill:#ffffff0a"/><polygon points="824.04 441.85 804.19 441.85 804.19 422 792.85 422 792.85 441.85 773 441.85 773 453.19 792.85 453.19 792.85 473.05 804.19 473.05 804.19 453.19 824.04 453.19 824.04 441.85" style="fill:#ffffff0a"/><polygon points="893.04 441.85 873.19 441.85 873.19 422 861.85 422 861.85 441.85 842 441.85 842 453.19 861.85 453.19 861.85 473.05 873.19 473.05 873.19 453.19 893.04 453.19 893.04 441.85" style="fill:#ffffff0a"/><polygon points="964.04 441.85 944.19 441.85 944.19 422 932.85 422 932.85 441.85 913 441.85 913 453.19 932.85 453.19 932.85 473.05 944.19 473.05 944.19 453.19 964.04 453.19 964.04 441.85" style="fill:#ffffff0a"/><polygon points="51.05 511.85 31.19 511.85 31.19 492 19.85 492 19.85 511.85 0 511.85 0 523.19 19.85 523.19 19.85 543.04 31.19 543.04 31.19 523.19 51.05 523.19 51.05 511.85" style="fill:#ffffff0a"/><polygon points="122.05 511.85 102.19 511.85 102.19 492 90.85 492 90.85 511.85 71 511.85 71 523.19 90.85 523.19 90.85 543.04 102.19 543.04 102.19 523.19 122.05 523.19 122.05 511.85" style="fill:#ffffff0a"/><polygon points="192.04 511.85 172.19 511.85 172.19 492 160.85 492 160.85 511.85 141 511.85 141 523.19 160.85 523.19 160.85 543.04 172.19 543.04 172.19 523.19 192.04 523.19 192.04 511.85" style="fill:#ffffff0a"/><polygon points="263.05 511.85 243.19 511.85 243.19 492 231.85 492 231.85 511.85 212 511.85 212 523.19 231.85 523.19 231.85 543.04 243.19 543.04 243.19 523.19 263.05 523.19 263.05 511.85" style="fill:#ffffff0a"/><polygon points="332.05 511.85 312.19 511.85 312.19 492 300.85 492 300.85 511.85 281 511.85 281 523.19 300.85 523.19 300.85 543.04 312.19 543.04 312.19 523.19 332.05 523.19 332.05 511.85" style="fill:#ffffff0a"/><polygon points="403.05 511.85 383.19 511.85 383.19 492 371.85 492 371.85 511.85 352 511.85 352 523.19 371.85 523.19 371.85 543.04 383.19 543.04 383.19 523.19 403.05 523.19 403.05 511.85" style="fill:#ffffff0a"/><polygon points="473.05 511.85 453.19 511.85 453.19 492 441.85 492 441.85 511.85 422 511.85 422 523.19 441.85 523.19 441.85 543.04 453.19 543.04 453.19 523.19 473.05 523.19 473.05 511.85" style="fill:#ffffff0a"/><polygon points="544.04 511.85 524.19 511.85 524.19 492 512.85 492 512.85 511.85 493 511.85 493 523.19 512.85 523.19 512.85 543.04 524.19 543.04 524.19 523.19 544.04 523.19 544.04 511.85" style="fill:#ffffff0a"/><polygon points="612.04 511.85 592.19 511.85 592.19 492 580.85 492 580.85 511.85 561 511.85 561 523.19 580.85 523.19 580.85 543.04 592.19 543.04 592.19 523.19 612.04 523.19 612.04 511.85" style="fill:#ffffff0a"/><polygon points="683.04 511.85 663.19 511.85 663.19 492 651.85 492 651.85 511.85 632 511.85 632 523.19 651.85 523.19 651.85 543.04 663.19 543.04 663.19 523.19 683.04 523.19 683.04 511.85" style="fill:#ffffff0a"/><polygon points="753.04 511.85 733.19 511.85 733.19 492 721.85 492 721.85 511.85 702 511.85 702 523.19 721.85 523.19 721.85 543.04 733.19 543.04 733.19 523.19 753.04 523.19 753.04 511.85" style="fill:#ffffff0a"/><polygon points="824.04 511.85 804.19 511.85 804.19 492 792.85 492 792.85 511.85 773 511.85 773 523.19 792.85 523.19 792.85 543.04 804.19 543.04 804.19 523.19 824.04 523.19 824.04 511.85" style="fill:#ffffff0a"/><polygon points="893.04 511.85 873.19 511.85 873.19 492 861.85 492 861.85 511.85 842 511.85 842 523.19 861.85 523.19 861.85 543.04 873.19 543.04 873.19 523.19 893.04 523.19 893.04 511.85" style="fill:#ffffff0a"/><polygon points="964.04 511.85 944.19 511.85 944.19 492 932.85 492 932.85 511.85 913 511.85 913 523.19 932.85 523.19 932.85 543.04 944.19 543.04 944.19 523.19 964.04 523.19 964.04 511.85" style="fill:#ffffff0a"/><polygon points="51.05 580.85 31.19 580.85 31.19 561 19.85 561 19.85 580.85 0 580.85 0 592.19 19.85 592.19 19.85 612.04 31.19 612.04 31.19 592.19 51.05 592.19 51.05 580.85" style="fill:#ffffff0a"/><polygon points="122.05 580.85 102.19 580.85 102.19 561 90.85 561 90.85 580.85 71 580.85 71 592.19 90.85 592.19 90.85 612.04 102.19 612.04 102.19 592.19 122.05 592.19 122.05 580.85" style="fill:#ffffff0a"/><polygon points="192.04 580.85 172.19 580.85 172.19 561 160.85 561 160.85 580.85 141 580.85 141 592.19 160.85 592.19 160.85 612.04 172.19 612.04 172.19 592.19 192.04 592.19 192.04 580.85" style="fill:#ffffff0a"/><polygon points="263.05 580.85 243.19 580.85 243.19 561 231.85 561 231.85 580.85 212 580.85 212 592.19 231.85 592.19 231.85 612.04 243.19 612.04 243.19 592.19 263.05 592.19 263.05 580.85" style="fill:#ffffff0a"/><polygon points="332.05 580.85 312.19 580.85 312.19 561 300.85 561 300.85 580.85 281 580.85 281 592.19 300.85 592.19 300.85 612.04 312.19 612.04 312.19 592.19 332.05 592.19 332.05 580.85" style="fill:#ffffff0a"/><polygon points="403.05 580.85 383.19 580.85 383.19 561 371.85 561 371.85 580.85 352 580.85 352 592.19 371.85 592.19 371.85 612.04 383.19 612.04 383.19 592.19 403.05 592.19 403.05 580.85" style="fill:#ffffff0a"/><polygon points="473.05 580.85 453.19 580.85 453.19 561 441.85 561 441.85 580.85 422 580.85 422 592.19 441.85 592.19 441.85 612.04 453.19 612.04 453.19 592.19 473.05 592.19 473.05 580.85" style="fill:#ffffff0a"/><polygon points="544.04 580.85 524.19 580.85 524.19 561 512.85 561 512.85 580.85 493 580.85 493 592.19 512.85 592.19 512.85 612.04 524.19 612.04 524.19 592.19 544.04 592.19 544.04 580.85" style="fill:#ffffff0a"/><polygon points="612.04 580.85 592.19 580.85 592.19 561 580.85 561 580.85 580.85 561 580.85 561 592.19 580.85 592.19 580.85 612.04 592.19 612.04 592.19 592.19 612.04 592.19 612.04 580.85" style="fill:#ffffff0a"/><polygon points="683.04 580.85 663.19 580.85 663.19 561 651.85 561 651.85 580.85 632 580.85 632 592.19 651.85 592.19 651.85 612.04 663.19 612.04 663.19 592.19 683.04 592.19 683.04 580.85" style="fill:#ffffff0a"/><polygon points="753.04 580.85 733.19 580.85 733.19 561 721.85 561 721.85 580.85 702 580.85 702 592.19 721.85 592.19 721.85 612.04 733.19 612.04 733.19 592.19 753.04 592.19 753.04 580.85" style="fill:#ffffff0a"/><polygon points="824.04 580.85 804.19 580.85 804.19 561 792.85 561 792.85 580.85 773 580.85 773 592.19 792.85 592.19 792.85 612.04 804.19 612.04 804.19 592.19 824.04 592.19 824.04 580.85" style="fill:#ffffff0a"/><polygon points="893.04 580.85 873.19 580.85 873.19 561 861.85 561 861.85 580.85 842 580.85 842 592.19 861.85 592.19 861.85 612.04 873.19 612.04 873.19 592.19 893.04 592.19 893.04 580.85" style="fill:#ffffff0a"/><polygon points="964.04 580.85 944.19 580.85 944.19 561 932.85 561 932.85 580.85 913 580.85 913 592.19 932.85 592.19 932.85 612.04 944.19 612.04 944.19 592.19 964.04 592.19 964.04 580.85" style="fill:#ffffff0a"/><polygon points="51.05 650.85 31.19 650.85 31.19 631 19.85 631 19.85 650.85 0 650.85 0 662.19 19.85 662.19 19.85 682.04 31.19 682.04 31.19 662.19 51.05 662.19 51.05 650.85" style="fill:#ffffff0a"/><polygon points="122.05 650.85 102.19 650.85 102.19 631 90.85 631 90.85 650.85 71 650.85 71 662.19 90.85 662.19 90.85 682.04 102.19 682.04 102.19 662.19 122.05 662.19 122.05 650.85" style="fill:#ffffff0a"/><polygon points="192.04 650.85 172.19 650.85 172.19 631 160.85 631 160.85 650.85 141 650.85 141 662.19 160.85 662.19 160.85 682.04 172.19 682.04 172.19 662.19 192.04 662.19 192.04 650.85" style="fill:#ffffff0a"/><polygon points="263.05 650.85 243.19 650.85 243.19 631 231.85 631 231.85 650.85 212 650.85 212 662.19 231.85 662.19 231.85 682.04 243.19 682.04 243.19 662.19 263.05 662.19 263.05 650.85" style="fill:#ffffff0a"/><polygon points="332.05 650.85 312.19 650.85 312.19 631 300.85 631 300.85 650.85 281 650.85 281 662.19 300.85 662.19 300.85 682.04 312.19 682.04 312.19 662.19 332.05 662.19 332.05 650.85" style="fill:#ffffff0a"/><polygon points="403.05 650.85 383.19 650.85 383.19 631 371.85 631 371.85 650.85 352 650.85 352 662.19 371.85 662.19 371.85 682.04 383.19 682.04 383.19 662.19 403.05 662.19 403.05 650.85" style="fill:#ffffff0a"/><polygon points="473.05 650.85 453.19 650.85 453.19 631 441.85 631 441.85 650.85 422 650.85 422 662.19 441.85 662.19 441.85 682.04 453.19 682.04 453.19 662.19 473.05 662.19 473.05 650.85" style="fill:#ffffff0a"/><polygon points="544.04 650.85 524.19 650.85 524.19 631 512.85 631 512.85 650.85 493 650.85 493 662.19 512.85 662.19 512.85 682.04 524.19 682.04 524.19 662.19 544.04 662.19 544.04 650.85" style="fill:#ffffff0a"/><polygon points="612.04 650.85 592.19 650.85 592.19 631 580.85 631 580.85 650.85 561 650.85 561 662.19 580.85 662.19 580.85 682.04 592.19 682.04 592.19 662.19 612.04 662.19 612.04 650.85" style="fill:#ffffff0a"/><polygon points="683.04 650.85 663.19 650.85 663.19 631 651.85 631 651.85 650.85 632 650.85 632 662.19 651.85 662.19 651.85 682.04 663.19 682.04 663.19 662.19 683.04 662.19 683.04 650.85" style="fill:#ffffff0a"/><polygon points="753.04 650.85 733.19 650.85 733.19 631 721.85 631 721.85 650.85 702 650.85 702 662.19 721.85 662.19 721.85 682.04 733.19 682.04 733.19 662.19 753.04 662.19 753.04 650.85" style="fill:#ffffff0a"/><polygon points="824.04 650.85 804.19 650.85 804.19 631 792.85 631 792.85 650.85 773 650.85 773 662.19 792.85 662.19 792.85 682.04 804.19 682.04 804.19 662.19 824.04 662.19 824.04 650.85" style="fill:#ffffff0a"/><polygon points="893.04 650.85 873.19 650.85 873.19 631 861.85 631 861.85 650.85 842 650.85 842 662.19 861.85 662.19 861.85 682.04 873.19 682.04 873.19 662.19 893.04 662.19 893.04 650.85" style="fill:#ffffff0a"/><polygon points="964.04 650.85 944.19 650.85 944.19 631 932.85 631 932.85 650.85 913 650.85 913 662.19 932.85 662.19 932.85 682.04 944.19 682.04 944.19 662.19 964.04 662.19 964.04 650.85" style="fill:#ffffff0a"/><polygon points="51.05 721.85 31.19 721.85 31.19 702 19.85 702 19.85 721.85 0 721.85 0 733.19 19.85 733.19 19.85 753.04 31.19 753.04 31.19 733.19 51.05 733.19 51.05 721.85" style="fill:#ffffff0a"/><polygon points="122.05 721.85 102.19 721.85 102.19 702 90.85 702 90.85 721.85 71 721.85 71 733.19 90.85 733.19 90.85 753.04 102.19 753.04 102.19 733.19 122.05 733.19 122.05 721.85" style="fill:#ffffff0a"/><polygon points="192.04 721.85 172.19 721.85 172.19 702 160.85 702 160.85 721.85 141 721.85 141 733.19 160.85 733.19 160.85 753.04 172.19 753.04 172.19 733.19 192.04 733.19 192.04 721.85" style="fill:#ffffff0a"/><polygon points="263.05 721.85 243.19 721.85 243.19 702 231.85 702 231.85 721.85 212 721.85 212 733.19 231.85 733.19 231.85 753.04 243.19 753.04 243.19 733.19 263.05 733.19 263.05 721.85" style="fill:#ffffff0a"/><polygon points="332.05 721.85 312.19 721.85 312.19 702 300.85 702 300.85 721.85 281 721.85 281 733.19 300.85 733.19 300.85 753.04 312.19 753.04 312.19 733.19 332.05 733.19 332.05 721.85" style="fill:#ffffff0a"/><polygon points="403.05 721.85 383.19 721.85 383.19 702 371.85 702 371.85 721.85 352 721.85 352 733.19 371.85 733.19 371.85 753.04 383.19 753.04 383.19 733.19 403.05 733.19 403.05 721.85" style="fill:#ffffff0a"/><polygon points="473.05 721.85 453.19 721.85 453.19 702 441.85 702 441.85 721.85 422 721.85 422 733.19 441.85 733.19 441.85 753.04 453.19 753.04 453.19 733.19 473.05 733.19 473.05 721.85" style="fill:#ffffff0a"/><polygon points="544.04 721.85 524.19 721.85 524.19 702 512.85 702 512.85 721.85 493 721.85 493 733.19 512.85 733.19 512.85 753.04 524.19 753.04 524.19 733.19 544.04 733.19 544.04 721.85" style="fill:#ffffff0a"/><polygon points="612.04 721.85 592.19 721.85 592.19 702 580.85 702 580.85 721.85 561 721.85 561 733.19 580.85 733.19 580.85 753.04 592.19 753.04 592.19 733.19 612.04 733.19 612.04 721.85" style="fill:#ffffff0a"/><polygon points="683.04 721.85 663.19 721.85 663.19 702 651.85 702 651.85 721.85 632 721.85 632 733.19 651.85 733.19 651.85 753.04 663.19 753.04 663.19 733.19 683.04 733.19 683.04 721.85" style="fill:#ffffff0a"/><polygon points="753.04 721.85 733.19 721.85 733.19 702 721.85 702 721.85 721.85 702 721.85 702 733.19 721.85 733.19 721.85 753.04 733.19 753.04 733.19 733.19 753.04 733.19 753.04 721.85" style="fill:#ffffff0a"/><polygon points="824.04 721.85 804.19 721.85 804.19 702 792.85 702 792.85 721.85 773 721.85 773 733.19 792.85 733.19 792.85 753.04 804.19 753.04 804.19 733.19 824.04 733.19 824.04 721.85" style="fill:#ffffff0a"/><polygon points="893.04 721.85 873.19 721.85 873.19 702 861.85 702 861.85 721.85 842 721.85 842 733.19 861.85 733.19 861.85 753.04 873.19 753.04 873.19 733.19 893.04 733.19 893.04 721.85" style="fill:#ffffff0a"/><polygon points="964.04 721.85 944.19 721.85 944.19 702 932.85 702 932.85 721.85 913 721.85 913 733.19 932.85 733.19 932.85 753.04 944.19 753.04 944.19 733.19 964.04 733.19 964.04 721.85" style="fill:#ffffff0a"/><polygon points="51.05 791.85 31.19 791.85 31.19 772 19.85 772 19.85 791.85 0 791.85 0 803.19 19.85 803.19 19.85 823.04 31.19 823.04 31.19 803.19 51.05 803.19 51.05 791.85" style="fill:#ffffff0a"/><polygon points="122.05 791.85 102.19 791.85 102.19 772 90.85 772 90.85 791.85 71 791.85 71 803.19 90.85 803.19 90.85 823.04 102.19 823.04 102.19 803.19 122.05 803.19 122.05 791.85" style="fill:#ffffff0a"/><polygon points="192.04 791.85 172.19 791.85 172.19 772 160.85 772 160.85 791.85 141 791.85 141 803.19 160.85 803.19 160.85 823.04 172.19 823.04 172.19 803.19 192.04 803.19 192.04 791.85" style="fill:#ffffff0a"/><polygon points="263.05 791.85 243.19 791.85 243.19 772 231.85 772 231.85 791.85 212 791.85 212 803.19 231.85 803.19 231.85 823.04 243.19 823.04 243.19 803.19 263.05 803.19 263.05 791.85" style="fill:#ffffff0a"/><polygon points="332.05 791.85 312.19 791.85 312.19 772 300.85 772 300.85 791.85 281 791.85 281 803.19 300.85 803.19 300.85 823.04 312.19 823.04 312.19 803.19 332.05 803.19 332.05 791.85" style="fill:#ffffff0a"/><polygon points="403.05 791.85 383.19 791.85 383.19 772 371.85 772 371.85 791.85 352 791.85 352 803.19 371.85 803.19 371.85 823.04 383.19 823.04 383.19 803.19 403.05 803.19 403.05 791.85" style="fill:#ffffff0a"/><polygon points="473.05 791.85 453.19 791.85 453.19 772 441.85 772 441.85 791.85 422 791.85 422 803.19 441.85 803.19 441.85 823.04 453.19 823.04 453.19 803.19 473.05 803.19 473.05 791.85" style="fill:#ffffff0a"/><polygon points="544.04 791.85 524.19 791.85 524.19 772 512.85 772 512.85 791.85 493 791.85 493 803.19 512.85 803.19 512.85 823.04 524.19 823.04 524.19 803.19 544.04 803.19 544.04 791.85" style="fill:#ffffff0a"/><polygon points="612.04 791.85 592.19 791.85 592.19 772 580.85 772 580.85 791.85 561 791.85 561 803.19 580.85 803.19 580.85 823.04 592.19 823.04 592.19 803.19 612.04 803.19 612.04 791.85" style="fill:#ffffff0a"/><polygon points="683.04 791.85 663.19 791.85 663.19 772 651.85 772 651.85 791.85 632 791.85 632 803.19 651.85 803.19 651.85 823.04 663.19 823.04 663.19 803.19 683.04 803.19 683.04 791.85" style="fill:#ffffff0a"/><polygon points="753.04 791.85 733.19 791.85 733.19 772 721.85 772 721.85 791.85 702 791.85 702 803.19 721.85 803.19 721.85 823.04 733.19 823.04 733.19 803.19 753.04 803.19 753.04 791.85" style="fill:#ffffff0a"/><polygon points="824.04 791.85 804.19 791.85 804.19 772 792.85 772 792.85 791.85 773 791.85 773 803.19 792.85 803.19 792.85 823.04 804.19 823.04 804.19 803.19 824.04 803.19 824.04 791.85" style="fill:#ffffff0a"/><polygon points="893.04 791.85 873.19 791.85 873.19 772 861.85 772 861.85 791.85 842 791.85 842 803.19 861.85 803.19 861.85 823.04 873.19 823.04 873.19 803.19 893.04 803.19 893.04 791.85" style="fill:#ffffff0a"/><polygon points="964.04 791.85 944.19 791.85 944.19 772 932.85 772 932.85 791.85 913 791.85 913 803.19 932.85 803.19 932.85 823.04 944.19 823.04 944.19 803.19 964.04 803.19 964.04 791.85" style="fill:#ffffff0a"/><polygon points="51.05 861.85 31.19 861.85 31.19 842 19.85 842 19.85 861.85 0 861.85 0 873.19 19.85 873.19 19.85 893.04 31.19 893.04 31.19 873.19 51.05 873.19 51.05 861.85" style="fill:#ffffff0a"/><polygon points="122.05 861.85 102.19 861.85 102.19 842 90.85 842 90.85 861.85 71 861.85 71 873.19 90.85 873.19 90.85 893.04 102.19 893.04 102.19 873.19 122.05 873.19 122.05 861.85" style="fill:#ffffff0a"/><polygon points="192.04 861.85 172.19 861.85 172.19 842 160.85 842 160.85 861.85 141 861.85 141 873.19 160.85 873.19 160.85 893.04 172.19 893.04 172.19 873.19 192.04 873.19 192.04 861.85" style="fill:#ffffff0a"/><polygon points="263.05 861.85 243.19 861.85 243.19 842 231.85 842 231.85 861.85 212 861.85 212 873.19 231.85 873.19 231.85 893.04 243.19 893.04 243.19 873.19 263.05 873.19 263.05 861.85" style="fill:#ffffff0a"/><polygon points="332.05 861.85 312.19 861.85 312.19 842 300.85 842 300.85 861.85 281 861.85 281 873.19 300.85 873.19 300.85 893.04 312.19 893.04 312.19 873.19 332.05 873.19 332.05 861.85" style="fill:#ffffff0a"/><polygon points="403.05 861.85 383.19 861.85 383.19 842 371.85 842 371.85 861.85 352 861.85 352 873.19 371.85 873.19 371.85 893.04 383.19 893.04 383.19 873.19 403.05 873.19 403.05 861.85" style="fill:#ffffff0a"/><polygon points="473.05 861.85 453.19 861.85 453.19 842 441.85 842 441.85 861.85 422 861.85 422 873.19 441.85 873.19 441.85 893.04 453.19 893.04 453.19 873.19 473.05 873.19 473.05 861.85" style="fill:#ffffff0a"/><polygon points="544.04 861.85 524.19 861.85 524.19 842 512.85 842 512.85 861.85 493 861.85 493 873.19 512.85 873.19 512.85 893.04 524.19 893.04 524.19 873.19 544.04 873.19 544.04 861.85" style="fill:#ffffff0a"/><polygon points="612.04 861.85 592.19 861.85 592.19 842 580.85 842 580.85 861.85 561 861.85 561 873.19 580.85 873.19 580.85 893.04 592.19 893.04 592.19 873.19 612.04 873.19 612.04 861.85" style="fill:#ffffff0a"/><polygon points="683.04 861.85 663.19 861.85 663.19 842 651.85 842 651.85 861.85 632 861.85 632 873.19 651.85 873.19 651.85 893.04 663.19 893.04 663.19 873.19 683.04 873.19 683.04 861.85" style="fill:#ffffff0a"/><polygon points="753.04 861.85 733.19 861.85 733.19 842 721.85 842 721.85 861.85 702 861.85 702 873.19 721.85 873.19 721.85 893.04 733.19 893.04 733.19 873.19 753.04 873.19 753.04 861.85" style="fill:#ffffff0a"/><polygon points="824.04 861.85 804.19 861.85 804.19 842 792.85 842 792.85 861.85 773 861.85 773 873.19 792.85 873.19 792.85 893.04 804.19 893.04 804.19 873.19 824.04 873.19 824.04 861.85" style="fill:#ffffff0a"/><polygon points="893.04 861.85 873.19 861.85 873.19 842 861.85 842 861.85 861.85 842 861.85 842 873.19 861.85 873.19 861.85 893.04 873.19 893.04 873.19 873.19 893.04 873.19 893.04 861.85" style="fill:#ffffff0a"/><polygon points="964.04 861.85 944.19 861.85 944.19 842 932.85 842 932.85 861.85 913 861.85 913 873.19 932.85 873.19 932.85 893.04 944.19 893.04 944.19 873.19 964.04 873.19 964.04 861.85" style="fill:#ffffff0a"/><polygon points="51.05 931.85 31.19 931.85 31.19 912 19.85 912 19.85 931.85 0 931.85 0 943.19 19.85 943.19 19.85 963.04 31.19 963.04 31.19 943.19 51.05 943.19 51.05 931.85" style="fill:#ffffff0a"/><polygon points="122.05 931.85 102.19 931.85 102.19 912 90.85 912 90.85 931.85 71 931.85 71 943.19 90.85 943.19 90.85 963.04 102.19 963.04 102.19 943.19 122.05 943.19 122.05 931.85" style="fill:#ffffff0a"/><polygon points="192.04 931.85 172.19 931.85 172.19 912 160.85 912 160.85 931.85 141 931.85 141 943.19 160.85 943.19 160.85 963.04 172.19 963.04 172.19 943.19 192.04 943.19 192.04 931.85" style="fill:#ffffff0a"/><polygon points="263.05 931.85 243.19 931.85 243.19 912 231.85 912 231.85 931.85 212 931.85 212 943.19 231.85 943.19 231.85 963.04 243.19 963.04 243.19 943.19 263.05 943.19 263.05 931.85" style="fill:#ffffff0a"/><polygon points="332.05 931.85 312.19 931.85 312.19 912 300.85 912 300.85 931.85 281 931.85 281 943.19 300.85 943.19 300.85 963.04 312.19 963.04 312.19 943.19 332.05 943.19 332.05 931.85" style="fill:#ffffff0a"/><polygon points="403.05 931.85 383.19 931.85 383.19 912 371.85 912 371.85 931.85 352 931.85 352 943.19 371.85 943.19 371.85 963.04 383.19 963.04 383.19 943.19 403.05 943.19 403.05 931.85" style="fill:#ffffff0a"/><polygon points="473.05 931.85 453.19 931.85 453.19 912 441.85 912 441.85 931.85 422 931.85 422 943.19 441.85 943.19 441.85 963.04 453.19 963.04 453.19 943.19 473.05 943.19 473.05 931.85" style="fill:#ffffff0a"/><polygon points="544.04 931.85 524.19 931.85 524.19 912 512.85 912 512.85 931.85 493 931.85 493 943.19 512.85 943.19 512.85 963.04 524.19 963.04 524.19 943.19 544.04 943.19 544.04 931.85" style="fill:#ffffff0a"/><polygon points="612.04 931.85 592.19 931.85 592.19 912 580.85 912 580.85 931.85 561 931.85 561 943.19 580.85 943.19 580.85 963.04 592.19 963.04 592.19 943.19 612.04 943.19 612.04 931.85" style="fill:#ffffff0a"/><polygon points="683.04 931.85 663.19 931.85 663.19 912 651.85 912 651.85 931.85 632 931.85 632 943.19 651.85 943.19 651.85 963.04 663.19 963.04 663.19 943.19 683.04 943.19 683.04 931.85" style="fill:#ffffff0a"/><polygon points="753.04 931.85 733.19 931.85 733.19 912 721.85 912 721.85 931.85 702 931.85 702 943.19 721.85 943.19 721.85 963.04 733.19 963.04 733.19 943.19 753.04 943.19 753.04 931.85" style="fill:#ffffff0a"/><polygon points="824.04 931.85 804.19 931.85 804.19 912 792.85 912 792.85 931.85 773 931.85 773 943.19 792.85 943.19 792.85 963.04 804.19 963.04 804.19 943.19 824.04 943.19 824.04 931.85" style="fill:#ffffff0a"/><polygon points="893.04 931.85 873.19 931.85 873.19 912 861.85 912 861.85 931.85 842 931.85 842 943.19 861.85 943.19 861.85 963.04 873.19 963.04 873.19 943.19 893.04 943.19 893.04 931.85" style="fill:#ffffff0a"/><polygon points="964.04 931.85 944.19 931.85 944.19 912 932.85 912 932.85 931.85 913 931.85 913 943.19 932.85 943.19 932.85 963.04 944.19 963.04 944.19 943.19 964.04 943.19 964.04 931.85" style="fill:#ffffff0a"/></g></g></svg>