<svg xmlns="http://www.w3.org/2000/svg" width="1000" height="1000" viewBox="0 0 1000 1000"><g id="Layer_2" data-name="Layer 2"><g id="Layer_1-2" data-name="Layer 1"><rect x="0.5" y="0.5" width="999" height="999" style="fill:#fff"/><path d="M999,1V999H1V1H999m1-1H0V1000H1000V0Z"/><polygon points="70.81 37.65 50.96 37.65 50.96 17.8 39.62 17.8 39.62 37.65 19.76 37.65 19.76 48.99 39.62 48.99 39.62 68.84 50.96 68.84 50.96 48.99 70.81 48.99 70.81 37.65" style="fill:#c4c4c4"/><polygon points="141.81 37.65 121.96 37.65 121.96 17.8 110.61 17.8 110.61 37.65 90.76 37.65 90.76 48.99 110.61 48.99 110.61 68.84 121.96 68.84 121.96 48.99 141.81 48.99 141.81 37.65" style="fill:#c4c4c4"/><polygon points="211.81 37.65 191.96 37.65 191.96 17.8 180.62 17.8 180.62 37.65 160.76 37.65 160.76 48.99 180.62 48.99 180.62 68.84 191.96 68.84 191.96 48.99 211.81 48.99 211.81 37.65" style="fill:#c4c4c4"/><polygon points="282.81 37.65 262.96 37.65 262.96 17.8 251.62 17.8 251.62 37.65 231.76 37.65 231.76 48.99 251.62 48.99 251.62 68.84 262.96 68.84 262.96 48.99 282.81 48.99 282.81 37.65" style="fill:#c4c4c4"/><polygon points="351.81 37.65 331.96 37.65 331.96 17.8 320.62 17.8 320.62 37.65 300.76 37.65 300.76 48.99 320.62 48.99 320.62 68.84 331.96 68.84 331.96 48.99 351.81 48.99 351.81 37.65" style="fill:#c4c4c4"/><polygon points="422.81 37.65 402.96 37.65 402.96 17.8 391.62 17.8 391.62 37.65 371.76 37.65 371.76 48.99 391.62 48.99 391.62 68.84 402.96 68.84 402.96 48.99 422.81 48.99 422.81 37.65" style="fill:#c4c4c4"/><polygon points="492.81 37.65 472.96 37.65 472.96 17.8 461.62 17.8 461.62 37.65 441.76 37.65 441.76 48.99 461.62 48.99 461.62 68.84 472.96 68.84 472.96 48.99 492.81 48.99 492.81 37.65" style="fill:#c4c4c4"/><polygon points="563.81 37.65 543.96 37.65 543.96 17.8 532.62 17.8 532.62 37.65 512.76 37.65 512.76 48.99 532.62 48.99 532.62 68.84 543.96 68.84 543.96 48.99 563.81 48.99 563.81 37.65" style="fill:#c4c4c4"/><polygon points="631.81 37.65 611.96 37.65 611.96 17.8 600.62 17.8 600.62 37.65 580.76 37.65 580.76 48.99 600.62 48.99 600.62 68.84 611.96 68.84 611.96 48.99 631.81 48.99 631.81 37.65" style="fill:#c4c4c4"/><polygon points="702.81 37.65 682.96 37.65 682.96 17.8 671.62 17.8 671.62 37.65 651.76 37.65 651.76 48.99 671.62 48.99 671.62 68.84 682.96 68.84 682.96 48.99 702.81 48.99 702.81 37.65" style="fill:#c4c4c4"/><polygon points="772.81 37.65 752.96 37.65 752.96 17.8 741.62 17.8 741.62 37.65 721.76 37.65 721.76 48.99 741.62 48.99 741.62 68.84 752.96 68.84 752.96 48.99 772.81 48.99 772.81 37.65" style="fill:#c4c4c4"/><polygon points="843.81 37.65 823.96 37.65 823.96 17.8 812.62 17.8 812.62 37.65 792.76 37.65 792.76 48.99 812.62 48.99 812.62 68.84 823.96 68.84 823.96 48.99 843.81 48.99 843.81 37.65" style="fill:#c4c4c4"/><polygon points="912.81 37.65 892.96 37.65 892.96 17.8 881.62 17.8 881.62 37.65 861.76 37.65 861.76 48.99 881.62 48.99 881.62 68.84 892.96 68.84 892.96 48.99 912.81 48.99 912.81 37.65" style="fill:#c4c4c4"/><polygon points="983.81 37.65 963.96 37.65 963.96 17.8 952.62 17.8 952.62 37.65 932.76 37.65 932.76 48.99 952.62 48.99 952.62 68.84 963.96 68.84 963.96 48.99 983.81 48.99 983.81 37.65" style="fill:#c4c4c4"/><polygon points="70.81 107.65 50.96 107.65 50.96 87.8 39.62 87.8 39.62 107.65 19.76 107.65 19.76 118.99 39.62 118.99 39.62 138.84 50.96 138.84 50.96 118.99 70.81 118.99 70.81 107.65" style="fill:#c4c4c4"/><polygon points="141.81 107.65 121.96 107.65 121.96 87.8 110.61 87.8 110.61 107.65 90.76 107.65 90.76 118.99 110.61 118.99 110.61 138.84 121.96 138.84 121.96 118.99 141.81 118.99 141.81 107.65" style="fill:#c4c4c4"/><polygon points="211.81 107.65 191.96 107.65 191.96 87.8 180.62 87.8 180.62 107.65 160.76 107.65 160.76 118.99 180.62 118.99 180.62 138.84 191.96 138.84 191.96 118.99 211.81 118.99 211.81 107.65" style="fill:#c4c4c4"/><polygon points="282.81 107.65 262.96 107.65 262.96 87.8 251.62 87.8 251.62 107.65 231.76 107.65 231.76 118.99 251.62 118.99 251.62 138.84 262.96 138.84 262.96 118.99 282.81 118.99 282.81 107.65" style="fill:#c4c4c4"/><polygon points="351.81 107.65 331.96 107.65 331.96 87.8 320.62 87.8 320.62 107.65 300.76 107.65 300.76 118.99 320.62 118.99 320.62 138.84 331.96 138.84 331.96 118.99 351.81 118.99 351.81 107.65" style="fill:#c4c4c4"/><polygon points="422.81 107.65 402.96 107.65 402.96 87.8 391.62 87.8 391.62 107.65 371.76 107.65 371.76 118.99 391.62 118.99 391.62 138.84 402.96 138.84 402.96 118.99 422.81 118.99 422.81 107.65" style="fill:#c4c4c4"/><polygon points="492.81 107.65 472.96 107.65 472.96 87.8 461.62 87.8 461.62 107.65 441.76 107.65 441.76 118.99 461.62 118.99 461.62 138.84 472.96 138.84 472.96 118.99 492.81 118.99 492.81 107.65" style="fill:#c4c4c4"/><polygon points="563.81 107.65 543.96 107.65 543.96 87.8 532.62 87.8 532.62 107.65 512.76 107.65 512.76 118.99 532.62 118.99 532.62 138.84 543.96 138.84 543.96 118.99 563.81 118.99 563.81 107.65" style="fill:#c4c4c4"/><polygon points="631.81 107.65 611.96 107.65 611.96 87.8 600.62 87.8 600.62 107.65 580.76 107.65 580.76 118.99 600.62 118.99 600.62 138.84 611.96 138.84 611.96 118.99 631.81 118.99 631.81 107.65" style="fill:#c4c4c4"/><polygon points="702.81 107.65 682.96 107.65 682.96 87.8 671.62 87.8 671.62 107.65 651.76 107.65 651.76 118.99 671.62 118.99 671.62 138.84 682.96 138.84 682.96 118.99 702.81 118.99 702.81 107.65" style="fill:#c4c4c4"/><polygon points="772.81 107.65 752.96 107.65 752.96 87.8 741.62 87.8 741.62 107.65 721.76 107.65 721.76 118.99 741.62 118.99 741.62 138.84 752.96 138.84 752.96 118.99 772.81 118.99 772.81 107.65" style="fill:#c4c4c4"/><polygon points="843.81 107.65 823.96 107.65 823.96 87.8 812.62 87.8 812.62 107.65 792.76 107.65 792.76 118.99 812.62 118.99 812.62 138.84 823.96 138.84 823.96 118.99 843.81 118.99 843.81 107.65" style="fill:#c4c4c4"/><polygon points="912.81 107.65 892.96 107.65 892.96 87.8 881.62 87.8 881.62 107.65 861.76 107.65 861.76 118.99 881.62 118.99 881.62 138.84 892.96 138.84 892.96 118.99 912.81 118.99 912.81 107.65" style="fill:#c4c4c4"/><polygon points="983.81 107.65 963.96 107.65 963.96 87.8 952.62 87.8 952.62 107.65 932.76 107.65 932.76 118.99 952.62 118.99 952.62 138.84 963.96 138.84 963.96 118.99 983.81 118.99 983.81 107.65" style="fill:#c4c4c4"/><polygon points="70.81 38.65 50.96 38.65 50.96 18.8 39.62 18.8 39.62 38.65 19.76 38.65 19.76 49.99 39.62 49.99 39.62 69.84 50.96 69.84 50.96 49.99 70.81 49.99 70.81 38.65" style="fill:#c4c4c4"/><polygon points="141.81 38.65 121.96 38.65 121.96 18.8 110.61 18.8 110.61 38.65 90.76 38.65 90.76 49.99 110.61 49.99 110.61 69.84 121.96 69.84 121.96 49.99 141.81 49.99 141.81 38.65" style="fill:#c4c4c4"/><polygon points="211.81 38.65 191.96 38.65 191.96 18.8 180.62 18.8 180.62 38.65 160.76 38.65 160.76 49.99 180.62 49.99 180.62 69.84 191.96 69.84 191.96 49.99 211.81 49.99 211.81 38.65" style="fill:#c4c4c4"/><polygon points="282.81 38.65 262.96 38.65 262.96 18.8 251.62 18.8 251.62 38.65 231.76 38.65 231.76 49.99 251.62 49.99 251.62 69.84 262.96 69.84 262.96 49.99 282.81 49.99 282.81 38.65" style="fill:#c4c4c4"/><polygon points="351.81 38.65 331.96 38.65 331.96 18.8 320.62 18.8 320.62 38.65 300.76 38.65 300.76 49.99 320.62 49.99 320.62 69.84 331.96 69.84 331.96 49.99 351.81 49.99 351.81 38.65" style="fill:#c4c4c4"/><polygon points="422.81 38.65 402.96 38.65 402.96 18.8 391.62 18.8 391.62 38.65 371.76 38.65 371.76 49.99 391.62 49.99 391.62 69.84 402.96 69.84 402.96 49.99 422.81 49.99 422.81 38.65" style="fill:#c4c4c4"/><polygon points="492.81 38.65 472.96 38.65 472.96 18.8 461.62 18.8 461.62 38.65 441.76 38.65 441.76 49.99 461.62 49.99 461.62 69.84 472.96 69.84 472.96 49.99 492.81 49.99 492.81 38.65" style="fill:#c4c4c4"/><polygon points="563.81 38.65 543.96 38.65 543.96 18.8 532.62 18.8 532.62 38.65 512.76 38.65 512.76 49.99 532.62 49.99 532.62 69.84 543.96 69.84 543.96 49.99 563.81 49.99 563.81 38.65" style="fill:#c4c4c4"/><polygon points="631.81 38.65 611.96 38.65 611.96 18.8 600.62 18.8 600.62 38.65 580.76 38.65 580.76 49.99 600.62 49.99 600.62 69.84 611.96 69.84 611.96 49.99 631.81 49.99 631.81 38.65" style="fill:#c4c4c4"/><polygon points="702.81 38.65 682.96 38.65 682.96 18.8 671.62 18.8 671.62 38.65 651.76 38.65 651.76 49.99 671.62 49.99 671.62 69.84 682.96 69.84 682.96 49.99 702.81 49.99 702.81 38.65" style="fill:#c4c4c4"/><polygon points="772.81 38.65 752.96 38.65 752.96 18.8 741.62 18.8 741.62 38.65 721.76 38.65 721.76 49.99 741.62 49.99 741.62 69.84 752.96 69.84 752.96 49.99 772.81 49.99 772.81 38.65" style="fill:#c4c4c4"/><polygon points="843.81 38.65 823.96 38.65 823.96 18.8 812.62 18.8 812.62 38.65 792.76 38.65 792.76 49.99 812.62 49.99 812.62 69.84 823.96 69.84 823.96 49.99 843.81 49.99 843.81 38.65" style="fill:#c4c4c4"/><polygon points="912.81 38.65 892.96 38.65 892.96 18.8 881.62 18.8 881.62 38.65 861.76 38.65 861.76 49.99 881.62 49.99 881.62 69.84 892.96 69.84 892.96 49.99 912.81 49.99 912.81 38.65" style="fill:#c4c4c4"/><polygon points="983.81 38.65 963.96 38.65 963.96 18.8 952.62 18.8 952.62 38.65 932.76 38.65 932.76 49.99 952.62 49.99 952.62 69.84 963.96 69.84 963.96 49.99 983.81 49.99 983.81 38.65" style="fill:#c4c4c4"/><polygon points="70.81 108.65 50.96 108.65 50.96 88.8 39.62 88.8 39.62 108.65 19.76 108.65 19.76 119.99 39.62 119.99 39.62 139.84 50.96 139.84 50.96 119.99 70.81 119.99 70.81 108.65" style="fill:#c4c4c4"/><polygon points="141.81 108.65 121.96 108.65 121.96 88.8 110.61 88.8 110.61 108.65 90.76 108.65 90.76 119.99 110.61 119.99 110.61 139.84 121.96 139.84 121.96 119.99 141.81 119.99 141.81 108.65" style="fill:#c4c4c4"/><polygon points="211.81 108.65 191.96 108.65 191.96 88.8 180.62 88.8 180.62 108.65 160.76 108.65 160.76 119.99 180.62 119.99 180.62 139.84 191.96 139.84 191.96 119.99 211.81 119.99 211.81 108.65" style="fill:#c4c4c4"/><polygon points="282.81 108.65 262.96 108.65 262.96 88.8 251.62 88.8 251.62 108.65 231.76 108.65 231.76 119.99 251.62 119.99 251.62 139.84 262.96 139.84 262.96 119.99 282.81 119.99 282.81 108.65" style="fill:#c4c4c4"/><polygon points="351.81 108.65 331.96 108.65 331.96 88.8 320.62 88.8 320.62 108.65 300.76 108.65 300.76 119.99 320.62 119.99 320.62 139.84 331.96 139.84 331.96 119.99 351.81 119.99 351.81 108.65" style="fill:#c4c4c4"/><polygon points="422.81 108.65 402.96 108.65 402.96 88.8 391.62 88.8 391.62 108.65 371.76 108.65 371.76 119.99 391.62 119.99 391.62 139.84 402.96 139.84 402.96 119.99 422.81 119.99 422.81 108.65" style="fill:#c4c4c4"/><polygon points="492.81 108.65 472.96 108.65 472.96 88.8 461.62 88.8 461.62 108.65 441.76 108.65 441.76 119.99 461.62 119.99 461.62 139.84 472.96 139.84 472.96 119.99 492.81 119.99 492.81 108.65" style="fill:#c4c4c4"/><polygon points="563.81 108.65 543.96 108.65 543.96 88.8 532.62 88.8 532.62 108.65 512.76 108.65 512.76 119.99 532.62 119.99 532.62 139.84 543.96 139.84 543.96 119.99 563.81 119.99 563.81 108.65" style="fill:#c4c4c4"/><polygon points="631.81 108.65 611.96 108.65 611.96 88.8 600.62 88.8 600.62 108.65 580.76 108.65 580.76 119.99 600.62 119.99 600.62 139.84 611.96 139.84 611.96 119.99 631.81 119.99 631.81 108.65" style="fill:#c4c4c4"/><polygon points="702.81 108.65 682.96 108.65 682.96 88.8 671.62 88.8 671.62 108.65 651.76 108.65 651.76 119.99 671.62 119.99 671.62 139.84 682.96 139.84 682.96 119.99 702.81 119.99 702.81 108.65" style="fill:#c4c4c4"/><polygon points="772.81 108.65 752.96 108.65 752.96 88.8 741.62 88.8 741.62 108.65 721.76 108.65 721.76 119.99 741.62 119.99 741.62 139.84 752.96 139.84 752.96 119.99 772.81 119.99 772.81 108.65" style="fill:#c4c4c4"/><polygon points="843.81 108.65 823.96 108.65 823.96 88.8 812.62 88.8 812.62 108.65 792.76 108.65 792.76 119.99 812.62 119.99 812.62 139.84 823.96 139.84 823.96 119.99 843.81 119.99 843.81 108.65" style="fill:#c4c4c4"/><polygon points="912.81 108.65 892.96 108.65 892.96 88.8 881.62 88.8 881.62 108.65 861.76 108.65 861.76 119.99 881.62 119.99 881.62 139.84 892.96 139.84 892.96 119.99 912.81 119.99 912.81 108.65" style="fill:#c4c4c4"/><polygon points="983.81 108.65 963.96 108.65 963.96 88.8 952.62 88.8 952.62 108.65 932.76 108.65 932.76 119.99 952.62 119.99 952.62 139.84 963.96 139.84 963.96 119.99 983.81 119.99 983.81 108.65" style="fill:#c4c4c4"/><polygon points="70.81 179.65 50.96 179.65 50.96 159.79 39.62 159.79 39.62 179.65 19.76 179.65 19.76 190.99 39.62 190.99 39.62 210.84 50.96 210.84 50.96 190.99 70.81 190.99 70.81 179.65" style="fill:#c4c4c4"/><polygon points="141.81 179.65 121.96 179.65 121.96 159.79 110.61 159.79 110.61 179.65 90.76 179.65 90.76 190.99 110.61 190.99 110.61 210.84 121.96 210.84 121.96 190.99 141.81 190.99 141.81 179.65" style="fill:#c4c4c4"/><polygon points="211.81 179.65 191.96 179.65 191.96 159.79 180.62 159.79 180.62 179.65 160.76 179.65 160.76 190.99 180.62 190.99 180.62 210.84 191.96 210.84 191.96 190.99 211.81 190.99 211.81 179.65" style="fill:#c4c4c4"/><polygon points="282.81 179.65 262.96 179.65 262.96 159.79 251.62 159.79 251.62 179.65 231.76 179.65 231.76 190.99 251.62 190.99 251.62 210.84 262.96 210.84 262.96 190.99 282.81 190.99 282.81 179.65" style="fill:#c4c4c4"/><polygon points="351.81 179.65 331.96 179.65 331.96 159.79 320.62 159.79 320.62 179.65 300.76 179.65 300.76 190.99 320.62 190.99 320.62 210.84 331.96 210.84 331.96 190.99 351.81 190.99 351.81 179.65" style="fill:#c4c4c4"/><polygon points="422.81 179.65 402.96 179.65 402.96 159.79 391.62 159.79 391.62 179.65 371.76 179.65 371.76 190.99 391.62 190.99 391.62 210.84 402.96 210.84 402.96 190.99 422.81 190.99 422.81 179.65" style="fill:#c4c4c4"/><polygon points="492.81 179.65 472.96 179.65 472.96 159.79 461.62 159.79 461.62 179.65 441.76 179.65 441.76 190.99 461.62 190.99 461.62 210.84 472.96 210.84 472.96 190.99 492.81 190.99 492.81 179.65" style="fill:#c4c4c4"/><polygon points="563.81 179.65 543.96 179.65 543.96 159.79 532.62 159.79 532.62 179.65 512.76 179.65 512.76 190.99 532.62 190.99 532.62 210.84 543.96 210.84 543.96 190.99 563.81 190.99 563.81 179.65" style="fill:#c4c4c4"/><polygon points="631.81 179.65 611.96 179.65 611.96 159.79 600.62 159.79 600.62 179.65 580.76 179.65 580.76 190.99 600.62 190.99 600.62 210.84 611.96 210.84 611.96 190.99 631.81 190.99 631.81 179.65" style="fill:#c4c4c4"/><polygon points="702.81 179.65 682.96 179.65 682.96 159.79 671.62 159.79 671.62 179.65 651.76 179.65 651.76 190.99 671.62 190.99 671.62 210.84 682.96 210.84 682.96 190.99 702.81 190.99 702.81 179.65" style="fill:#c4c4c4"/><polygon points="772.81 179.65 752.96 179.65 752.96 159.79 741.62 159.79 741.62 179.65 721.76 179.65 721.76 190.99 741.62 190.99 741.62 210.84 752.96 210.84 752.96 190.99 772.81 190.99 772.81 179.65" style="fill:#c4c4c4"/><polygon points="843.81 179.65 823.96 179.65 823.96 159.79 812.62 159.79 812.62 179.65 792.76 179.65 792.76 190.99 812.62 190.99 812.62 210.84 823.96 210.84 823.96 190.99 843.81 190.99 843.81 179.65" style="fill:#c4c4c4"/><polygon points="912.81 179.65 892.96 179.65 892.96 159.79 881.62 159.79 881.62 179.65 861.76 179.65 861.76 190.99 881.62 190.99 881.62 210.84 892.96 210.84 892.96 190.99 912.81 190.99 912.81 179.65" style="fill:#c4c4c4"/><polygon points="983.81 179.65 963.96 179.65 963.96 159.79 952.62 159.79 952.62 179.65 932.76 179.65 932.76 190.99 952.62 190.99 952.62 210.84 963.96 210.84 963.96 190.99 983.81 190.99 983.81 179.65" style="fill:#c4c4c4"/><polygon points="70.81 249.65 50.96 249.65 50.96 229.79 39.62 229.79 39.62 249.65 19.76 249.65 19.76 260.99 39.62 260.99 39.62 280.84 50.96 280.84 50.96 260.99 70.81 260.99 70.81 249.65" style="fill:#c4c4c4"/><polygon points="141.81 249.65 121.96 249.65 121.96 229.79 110.61 229.79 110.61 249.65 90.76 249.65 90.76 260.99 110.61 260.99 110.61 280.84 121.96 280.84 121.96 260.99 141.81 260.99 141.81 249.65" style="fill:#c4c4c4"/><polygon points="211.81 249.65 191.96 249.65 191.96 229.79 180.62 229.79 180.62 249.65 160.76 249.65 160.76 260.99 180.62 260.99 180.62 280.84 191.96 280.84 191.96 260.99 211.81 260.99 211.81 249.65" style="fill:#c4c4c4"/><polygon points="282.81 249.65 262.96 249.65 262.96 229.79 251.62 229.79 251.62 249.65 231.76 249.65 231.76 260.99 251.62 260.99 251.62 280.84 262.96 280.84 262.96 260.99 282.81 260.99 282.81 249.65" style="fill:#c4c4c4"/><polygon points="351.81 249.65 331.96 249.65 331.96 229.79 320.62 229.79 320.62 249.65 300.76 249.65 300.76 260.99 320.62 260.99 320.62 280.84 331.96 280.84 331.96 260.99 351.81 260.99 351.81 249.65" style="fill:#c4c4c4"/><polygon points="422.81 249.65 402.96 249.65 402.96 229.79 391.62 229.79 391.62 249.65 371.76 249.65 371.76 260.99 391.62 260.99 391.62 280.84 402.96 280.84 402.96 260.99 422.81 260.99 422.81 249.65" style="fill:#c4c4c4"/><polygon points="492.81 249.65 472.96 249.65 472.96 229.79 461.62 229.79 461.62 249.65 441.76 249.65 441.76 260.99 461.62 260.99 461.62 280.84 472.96 280.84 472.96 260.99 492.81 260.99 492.81 249.65" style="fill:#c4c4c4"/><polygon points="563.81 249.65 543.96 249.65 543.96 229.79 532.62 229.79 532.62 249.65 512.76 249.65 512.76 260.99 532.62 260.99 532.62 280.84 543.96 280.84 543.96 260.99 563.81 260.99 563.81 249.65" style="fill:#c4c4c4"/><polygon points="631.81 249.65 611.96 249.65 611.96 229.79 600.62 229.79 600.62 249.65 580.76 249.65 580.76 260.99 600.62 260.99 600.62 280.84 611.96 280.84 611.96 260.99 631.81 260.99 631.81 249.65" style="fill:#c4c4c4"/><polygon points="702.81 249.65 682.96 249.65 682.96 229.79 671.62 229.79 671.62 249.65 651.76 249.65 651.76 260.99 671.62 260.99 671.62 280.84 682.96 280.84 682.96 260.99 702.81 260.99 702.81 249.65" style="fill:#c4c4c4"/><polygon points="772.81 249.65 752.96 249.65 752.96 229.79 741.62 229.79 741.62 249.65 721.76 249.65 721.76 260.99 741.62 260.99 741.62 280.84 752.96 280.84 752.96 260.99 772.81 260.99 772.81 249.65" style="fill:#c4c4c4"/><polygon points="843.81 249.65 823.96 249.65 823.96 229.79 812.62 229.79 812.62 249.65 792.76 249.65 792.76 260.99 812.62 260.99 812.62 280.84 823.96 280.84 823.96 260.99 843.81 260.99 843.81 249.65" style="fill:#c4c4c4"/><polygon points="912.81 249.65 892.96 249.65 892.96 229.79 881.62 229.79 881.62 249.65 861.76 249.65 861.76 260.99 881.62 260.99 881.62 280.84 892.96 280.84 892.96 260.99 912.81 260.99 912.81 249.65" style="fill:#c4c4c4"/><polygon points="983.81 249.65 963.96 249.65 963.96 229.79 952.62 229.79 952.62 249.65 932.76 249.65 932.76 260.99 952.62 260.99 952.62 280.84 963.96 280.84 963.96 260.99 983.81 260.99 983.81 249.65" style="fill:#c4c4c4"/><polygon points="70.81 318.65 50.96 318.65 50.96 298.8 39.62 298.8 39.62 318.65 19.76 318.65 19.76 329.99 39.62 329.99 39.62 349.84 50.96 349.84 50.96 329.99 70.81 329.99 70.81 318.65" style="fill:#c4c4c4"/><polygon points="141.81 318.65 121.96 318.65 121.96 298.8 110.61 298.8 110.61 318.65 90.76 318.65 90.76 329.99 110.61 329.99 110.61 349.84 121.96 349.84 121.96 329.99 141.81 329.99 141.81 318.65" style="fill:#c4c4c4"/><polygon points="211.81 318.65 191.96 318.65 191.96 298.8 180.62 298.8 180.62 318.65 160.76 318.65 160.76 329.99 180.62 329.99 180.62 349.84 191.96 349.84 191.96 329.99 211.81 329.99 211.81 318.65" style="fill:#c4c4c4"/><polygon points="282.81 318.65 262.96 318.65 262.96 298.8 251.62 298.8 251.62 318.65 231.76 318.65 231.76 329.99 251.62 329.99 251.62 349.84 262.96 349.84 262.96 329.99 282.81 329.99 282.81 318.65" style="fill:#c4c4c4"/><polygon points="351.81 318.65 331.96 318.65 331.96 298.8 320.62 298.8 320.62 318.65 300.76 318.65 300.76 329.99 320.62 329.99 320.62 349.84 331.96 349.84 331.96 329.99 351.81 329.99 351.81 318.65" style="fill:#c4c4c4"/><polygon points="422.81 318.65 402.96 318.65 402.96 298.8 391.62 298.8 391.62 318.65 371.76 318.65 371.76 329.99 391.62 329.99 391.62 349.84 402.96 349.84 402.96 329.99 422.81 329.99 422.81 318.65" style="fill:#c4c4c4"/><polygon points="492.81 318.65 472.96 318.65 472.96 298.8 461.62 298.8 461.62 318.65 441.76 318.65 441.76 329.99 461.62 329.99 461.62 349.84 472.96 349.84 472.96 329.99 492.81 329.99 492.81 318.65" style="fill:#c4c4c4"/><polygon points="563.81 318.65 543.96 318.65 543.96 298.8 532.62 298.8 532.62 318.65 512.76 318.65 512.76 329.99 532.62 329.99 532.62 349.84 543.96 349.84 543.96 329.99 563.81 329.99 563.81 318.65" style="fill:#c4c4c4"/><polygon points="631.81 318.65 611.96 318.65 611.96 298.8 600.62 298.8 600.62 318.65 580.76 318.65 580.76 329.99 600.62 329.99 600.62 349.84 611.96 349.84 611.96 329.99 631.81 329.99 631.81 318.65" style="fill:#c4c4c4"/><polygon points="702.81 318.65 682.96 318.65 682.96 298.8 671.62 298.8 671.62 318.65 651.76 318.65 651.76 329.99 671.62 329.99 671.62 349.84 682.96 349.84 682.96 329.99 702.81 329.99 702.81 318.65" style="fill:#c4c4c4"/><polygon points="772.81 318.65 752.96 318.65 752.96 298.8 741.62 298.8 741.62 318.65 721.76 318.65 721.76 329.99 741.62 329.99 741.62 349.84 752.96 349.84 752.96 329.99 772.81 329.99 772.81 318.65" style="fill:#c4c4c4"/><polygon points="843.81 318.65 823.96 318.65 823.96 298.8 812.62 298.8 812.62 318.65 792.76 318.65 792.76 329.99 812.62 329.99 812.62 349.84 823.96 349.84 823.96 329.99 843.81 329.99 843.81 318.65" style="fill:#c4c4c4"/><polygon points="912.81 318.65 892.96 318.65 892.96 298.8 881.62 298.8 881.62 318.65 861.76 318.65 861.76 329.99 881.62 329.99 881.62 349.84 892.96 349.84 892.96 329.99 912.81 329.99 912.81 318.65" style="fill:#c4c4c4"/><polygon points="983.81 318.65 963.96 318.65 963.96 298.8 952.62 298.8 952.62 318.65 932.76 318.65 932.76 329.99 952.62 329.99 952.62 349.84 963.96 349.84 963.96 329.99 983.81 329.99 983.81 318.65" style="fill:#c4c4c4"/><polygon points="70.81 388.65 50.96 388.65 50.96 368.8 39.62 368.8 39.62 388.65 19.76 388.65 19.76 399.99 39.62 399.99 39.62 419.84 50.96 419.84 50.96 399.99 70.81 399.99 70.81 388.65" style="fill:#c4c4c4"/><polygon points="141.81 388.65 121.96 388.65 121.96 368.8 110.61 368.8 110.61 388.65 90.76 388.65 90.76 399.99 110.61 399.99 110.61 419.84 121.96 419.84 121.96 399.99 141.81 399.99 141.81 388.65" style="fill:#c4c4c4"/><polygon points="211.81 388.65 191.96 388.65 191.96 368.8 180.62 368.8 180.62 388.65 160.76 388.65 160.76 399.99 180.62 399.99 180.62 419.84 191.96 419.84 191.96 399.99 211.81 399.99 211.81 388.65" style="fill:#c4c4c4"/><polygon points="282.81 388.65 262.96 388.65 262.96 368.8 251.62 368.8 251.62 388.65 231.76 388.65 231.76 399.99 251.62 399.99 251.62 419.84 262.96 419.84 262.96 399.99 282.81 399.99 282.81 388.65" style="fill:#c4c4c4"/><polygon points="351.81 388.65 331.96 388.65 331.96 368.8 320.62 368.8 320.62 388.65 300.76 388.65 300.76 399.99 320.62 399.99 320.62 419.84 331.96 419.84 331.96 399.99 351.81 399.99 351.81 388.65" style="fill:#c4c4c4"/><polygon points="422.81 388.65 402.96 388.65 402.96 368.8 391.62 368.8 391.62 388.65 371.76 388.65 371.76 399.99 391.62 399.99 391.62 419.84 402.96 419.84 402.96 399.99 422.81 399.99 422.81 388.65" style="fill:#c4c4c4"/><polygon points="492.81 388.65 472.96 388.65 472.96 368.8 461.62 368.8 461.62 388.65 441.76 388.65 441.76 399.99 461.62 399.99 461.62 419.84 472.96 419.84 472.96 399.99 492.81 399.99 492.81 388.65" style="fill:#c4c4c4"/><polygon points="563.81 388.65 543.96 388.65 543.96 368.8 532.62 368.8 532.62 388.65 512.76 388.65 512.76 399.99 532.62 399.99 532.62 419.84 543.96 419.84 543.96 399.99 563.81 399.99 563.81 388.65" style="fill:#c4c4c4"/><polygon points="631.81 388.65 611.96 388.65 611.96 368.8 600.62 368.8 600.62 388.65 580.76 388.65 580.76 399.99 600.62 399.99 600.62 419.84 611.96 419.84 611.96 399.99 631.81 399.99 631.81 388.65" style="fill:#c4c4c4"/><polygon points="702.81 388.65 682.96 388.65 682.96 368.8 671.62 368.8 671.62 388.65 651.76 388.65 651.76 399.99 671.62 399.99 671.62 419.84 682.96 419.84 682.96 399.99 702.81 399.99 702.81 388.65" style="fill:#c4c4c4"/><polygon points="772.81 388.65 752.96 388.65 752.96 368.8 741.62 368.8 741.62 388.65 721.76 388.65 721.76 399.99 741.62 399.99 741.62 419.84 752.96 419.84 752.96 399.99 772.81 399.99 772.81 388.65" style="fill:#c4c4c4"/><polygon points="843.81 388.65 823.96 388.65 823.96 368.8 812.62 368.8 812.62 388.65 792.76 388.65 792.76 399.99 812.62 399.99 812.62 419.84 823.96 419.84 823.96 399.99 843.81 399.99 843.81 388.65" style="fill:#c4c4c4"/><polygon points="912.81 388.65 892.96 388.65 892.96 368.8 881.62 368.8 881.62 388.65 861.76 388.65 861.76 399.99 881.62 399.99 881.62 419.84 892.96 419.84 892.96 399.99 912.81 399.99 912.81 388.65" style="fill:#c4c4c4"/><polygon points="983.81 388.65 963.96 388.65 963.96 368.8 952.62 368.8 952.62 388.65 932.76 388.65 932.76 399.99 952.62 399.99 952.62 419.84 963.96 419.84 963.96 399.99 983.81 399.99 983.81 388.65" style="fill:#c4c4c4"/><polygon points="70.81 319.65 50.96 319.65 50.96 299.8 39.62 299.8 39.62 319.65 19.76 319.65 19.76 330.99 39.62 330.99 39.62 350.84 50.96 350.84 50.96 330.99 70.81 330.99 70.81 319.65" style="fill:#c4c4c4"/><polygon points="141.81 319.65 121.96 319.65 121.96 299.8 110.61 299.8 110.61 319.65 90.76 319.65 90.76 330.99 110.61 330.99 110.61 350.84 121.96 350.84 121.96 330.99 141.81 330.99 141.81 319.65" style="fill:#c4c4c4"/><polygon points="211.81 319.65 191.96 319.65 191.96 299.8 180.62 299.8 180.62 319.65 160.76 319.65 160.76 330.99 180.62 330.99 180.62 350.84 191.96 350.84 191.96 330.99 211.81 330.99 211.81 319.65" style="fill:#c4c4c4"/><polygon points="282.81 319.65 262.96 319.65 262.96 299.8 251.62 299.8 251.62 319.65 231.76 319.65 231.76 330.99 251.62 330.99 251.62 350.84 262.96 350.84 262.96 330.99 282.81 330.99 282.81 319.65" style="fill:#c4c4c4"/><polygon points="351.81 319.65 331.96 319.65 331.96 299.8 320.62 299.8 320.62 319.65 300.76 319.65 300.76 330.99 320.62 330.99 320.62 350.84 331.96 350.84 331.96 330.99 351.81 330.99 351.81 319.65" style="fill:#c4c4c4"/><polygon points="422.81 319.65 402.96 319.65 402.96 299.8 391.62 299.8 391.62 319.65 371.76 319.65 371.76 330.99 391.62 330.99 391.62 350.84 402.96 350.84 402.96 330.99 422.81 330.99 422.81 319.65" style="fill:#c4c4c4"/><polygon points="492.81 319.65 472.96 319.65 472.96 299.8 461.62 299.8 461.62 319.65 441.76 319.65 441.76 330.99 461.62 330.99 461.62 350.84 472.96 350.84 472.96 330.99 492.81 330.99 492.81 319.65" style="fill:#c4c4c4"/><polygon points="563.81 319.65 543.96 319.65 543.96 299.8 532.62 299.8 532.62 319.65 512.76 319.65 512.76 330.99 532.62 330.99 532.62 350.84 543.96 350.84 543.96 330.99 563.81 330.99 563.81 319.65" style="fill:#c4c4c4"/><polygon points="631.81 319.65 611.96 319.65 611.96 299.8 600.62 299.8 600.62 319.65 580.76 319.65 580.76 330.99 600.62 330.99 600.62 350.84 611.96 350.84 611.96 330.99 631.81 330.99 631.81 319.65" style="fill:#c4c4c4"/><polygon points="702.81 319.65 682.96 319.65 682.96 299.8 671.62 299.8 671.62 319.65 651.76 319.65 651.76 330.99 671.62 330.99 671.62 350.84 682.96 350.84 682.96 330.99 702.81 330.99 702.81 319.65" style="fill:#c4c4c4"/><polygon points="772.81 319.65 752.96 319.65 752.96 299.8 741.62 299.8 741.62 319.65 721.76 319.65 721.76 330.99 741.62 330.99 741.62 350.84 752.96 350.84 752.96 330.99 772.81 330.99 772.81 319.65" style="fill:#c4c4c4"/><polygon points="843.81 319.65 823.96 319.65 823.96 299.8 812.62 299.8 812.62 319.65 792.76 319.65 792.76 330.99 812.62 330.99 812.62 350.84 823.96 350.84 823.96 330.99 843.81 330.99 843.81 319.65" style="fill:#c4c4c4"/><polygon points="912.81 319.65 892.96 319.65 892.96 299.8 881.62 299.8 881.62 319.65 861.76 319.65 861.76 330.99 881.62 330.99 881.62 350.84 892.96 350.84 892.96 330.99 912.81 330.99 912.81 319.65" style="fill:#c4c4c4"/><polygon points="983.81 319.65 963.96 319.65 963.96 299.8 952.62 299.8 952.62 319.65 932.76 319.65 932.76 330.99 952.62 330.99 952.62 350.84 963.96 350.84 963.96 330.99 983.81 330.99 983.81 319.65" style="fill:#c4c4c4"/><polygon points="70.81 389.65 50.96 389.65 50.96 369.8 39.62 369.8 39.62 389.65 19.76 389.65 19.76 400.99 39.62 400.99 39.62 420.84 50.96 420.84 50.96 400.99 70.81 400.99 70.81 389.65" style="fill:#c4c4c4"/><polygon points="141.81 389.65 121.96 389.65 121.96 369.8 110.61 369.8 110.61 389.65 90.76 389.65 90.76 400.99 110.61 400.99 110.61 420.84 121.96 420.84 121.96 400.99 141.81 400.99 141.81 389.65" style="fill:#c4c4c4"/><polygon points="211.81 389.65 191.96 389.65 191.96 369.8 180.62 369.8 180.62 389.65 160.76 389.65 160.76 400.99 180.62 400.99 180.62 420.84 191.96 420.84 191.96 400.99 211.81 400.99 211.81 389.65" style="fill:#c4c4c4"/><polygon points="282.81 389.65 262.96 389.65 262.96 369.8 251.62 369.8 251.62 389.65 231.76 389.65 231.76 400.99 251.62 400.99 251.62 420.84 262.96 420.84 262.96 400.99 282.81 400.99 282.81 389.65" style="fill:#c4c4c4"/><polygon points="351.81 389.65 331.96 389.65 331.96 369.8 320.62 369.8 320.62 389.65 300.76 389.65 300.76 400.99 320.62 400.99 320.62 420.84 331.96 420.84 331.96 400.99 351.81 400.99 351.81 389.65" style="fill:#c4c4c4"/><polygon points="422.81 389.65 402.96 389.65 402.96 369.8 391.62 369.8 391.62 389.65 371.76 389.65 371.76 400.99 391.62 400.99 391.62 420.84 402.96 420.84 402.96 400.99 422.81 400.99 422.81 389.65" style="fill:#c4c4c4"/><polygon points="492.81 389.65 472.96 389.65 472.96 369.8 461.62 369.8 461.62 389.65 441.76 389.65 441.76 400.99 461.62 400.99 461.62 420.84 472.96 420.84 472.96 400.99 492.81 400.99 492.81 389.65" style="fill:#c4c4c4"/><polygon points="563.81 389.65 543.96 389.65 543.96 369.8 532.62 369.8 532.62 389.65 512.76 389.65 512.76 400.99 532.62 400.99 532.62 420.84 543.96 420.84 543.96 400.99 563.81 400.99 563.81 389.65" style="fill:#c4c4c4"/><polygon points="631.81 389.65 611.96 389.65 611.96 369.8 600.62 369.8 600.62 389.65 580.76 389.65 580.76 400.99 600.62 400.99 600.62 420.84 611.96 420.84 611.96 400.99 631.81 400.99 631.81 389.65" style="fill:#c4c4c4"/><polygon points="702.81 389.65 682.96 389.65 682.96 369.8 671.62 369.8 671.62 389.65 651.76 389.65 651.76 400.99 671.62 400.99 671.62 420.84 682.96 420.84 682.96 400.99 702.81 400.99 702.81 389.65" style="fill:#c4c4c4"/><polygon points="772.81 389.65 752.96 389.65 752.96 369.8 741.62 369.8 741.62 389.65 721.76 389.65 721.76 400.99 741.62 400.99 741.62 420.84 752.96 420.84 752.96 400.99 772.81 400.99 772.81 389.65" style="fill:#c4c4c4"/><polygon points="843.81 389.65 823.96 389.65 823.96 369.8 812.62 369.8 812.62 389.65 792.76 389.65 792.76 400.99 812.62 400.99 812.62 420.84 823.96 420.84 823.96 400.99 843.81 400.99 843.81 389.65" style="fill:#c4c4c4"/><polygon points="912.81 389.65 892.96 389.65 892.96 369.8 881.62 369.8 881.62 389.65 861.76 389.65 861.76 400.99 881.62 400.99 881.62 420.84 892.96 420.84 892.96 400.99 912.81 400.99 912.81 389.65" style="fill:#c4c4c4"/><polygon points="983.81 389.65 963.96 389.65 963.96 369.8 952.62 369.8 952.62 389.65 932.76 389.65 932.76 400.99 952.62 400.99 952.62 420.84 963.96 420.84 963.96 400.99 983.81 400.99 983.81 389.65" style="fill:#c4c4c4"/><polygon points="70.81 460.65 50.96 460.65 50.96 440.8 39.62 440.8 39.62 460.65 19.76 460.65 19.76 471.99 39.62 471.99 39.62 491.84 50.96 491.84 50.96 471.99 70.81 471.99 70.81 460.65" style="fill:#c4c4c4"/><polygon points="141.81 460.65 121.96 460.65 121.96 440.8 110.61 440.8 110.61 460.65 90.76 460.65 90.76 471.99 110.61 471.99 110.61 491.84 121.96 491.84 121.96 471.99 141.81 471.99 141.81 460.65" style="fill:#c4c4c4"/><polygon points="211.81 460.65 191.96 460.65 191.96 440.8 180.62 440.8 180.62 460.65 160.76 460.65 160.76 471.99 180.62 471.99 180.62 491.84 191.96 491.84 191.96 471.99 211.81 471.99 211.81 460.65" style="fill:#c4c4c4"/><polygon points="282.81 460.65 262.96 460.65 262.96 440.8 251.62 440.8 251.62 460.65 231.76 460.65 231.76 471.99 251.62 471.99 251.62 491.84 262.96 491.84 262.96 471.99 282.81 471.99 282.81 460.65" style="fill:#c4c4c4"/><polygon points="351.81 460.65 331.96 460.65 331.96 440.8 320.62 440.8 320.62 460.65 300.76 460.65 300.76 471.99 320.62 471.99 320.62 491.84 331.96 491.84 331.96 471.99 351.81 471.99 351.81 460.65" style="fill:#c4c4c4"/><polygon points="422.81 460.65 402.96 460.65 402.96 440.8 391.62 440.8 391.62 460.65 371.76 460.65 371.76 471.99 391.62 471.99 391.62 491.84 402.96 491.84 402.96 471.99 422.81 471.99 422.81 460.65" style="fill:#c4c4c4"/><polygon points="492.81 460.65 472.96 460.65 472.96 440.8 461.62 440.8 461.62 460.65 441.76 460.65 441.76 471.99 461.62 471.99 461.62 491.84 472.96 491.84 472.96 471.99 492.81 471.99 492.81 460.65" style="fill:#c4c4c4"/><polygon points="563.81 460.65 543.96 460.65 543.96 440.8 532.62 440.8 532.62 460.65 512.76 460.65 512.76 471.99 532.62 471.99 532.62 491.84 543.96 491.84 543.96 471.99 563.81 471.99 563.81 460.65" style="fill:#c4c4c4"/><polygon points="631.81 460.65 611.96 460.65 611.96 440.8 600.62 440.8 600.62 460.65 580.76 460.65 580.76 471.99 600.62 471.99 600.62 491.84 611.96 491.84 611.96 471.99 631.81 471.99 631.81 460.65" style="fill:#c4c4c4"/><polygon points="702.81 460.65 682.96 460.65 682.96 440.8 671.62 440.8 671.62 460.65 651.76 460.65 651.76 471.99 671.62 471.99 671.62 491.84 682.96 491.84 682.96 471.99 702.81 471.99 702.81 460.65" style="fill:#c4c4c4"/><polygon points="772.81 460.65 752.96 460.65 752.96 440.8 741.62 440.8 741.62 460.65 721.76 460.65 721.76 471.99 741.62 471.99 741.62 491.84 752.96 491.84 752.96 471.99 772.81 471.99 772.81 460.65" style="fill:#c4c4c4"/><polygon points="843.81 460.65 823.96 460.65 823.96 440.8 812.62 440.8 812.62 460.65 792.76 460.65 792.76 471.99 812.62 471.99 812.62 491.84 823.96 491.84 823.96 471.99 843.81 471.99 843.81 460.65" style="fill:#c4c4c4"/><polygon points="912.81 460.65 892.96 460.65 892.96 440.8 881.62 440.8 881.62 460.65 861.76 460.65 861.76 471.99 881.62 471.99 881.62 491.84 892.96 491.84 892.96 471.99 912.81 471.99 912.81 460.65" style="fill:#c4c4c4"/><polygon points="983.81 460.65 963.96 460.65 963.96 440.8 952.62 440.8 952.62 460.65 932.76 460.65 932.76 471.99 952.62 471.99 952.62 491.84 963.96 491.84 963.96 471.99 983.81 471.99 983.81 460.65" style="fill:#c4c4c4"/><polygon points="70.81 530.65 50.96 530.65 50.96 510.8 39.62 510.8 39.62 530.65 19.76 530.65 19.76 541.99 39.62 541.99 39.62 561.84 50.96 561.84 50.96 541.99 70.81 541.99 70.81 530.65" style="fill:#c4c4c4"/><polygon points="141.81 530.65 121.96 530.65 121.96 510.8 110.61 510.8 110.61 530.65 90.76 530.65 90.76 541.99 110.61 541.99 110.61 561.84 121.96 561.84 121.96 541.99 141.81 541.99 141.81 530.65" style="fill:#c4c4c4"/><polygon points="211.81 530.65 191.96 530.65 191.96 510.8 180.62 510.8 180.62 530.65 160.76 530.65 160.76 541.99 180.62 541.99 180.62 561.84 191.96 561.84 191.96 541.99 211.81 541.99 211.81 530.65" style="fill:#c4c4c4"/><polygon points="282.81 530.65 262.96 530.65 262.96 510.8 251.62 510.8 251.62 530.65 231.76 530.65 231.76 541.99 251.62 541.99 251.62 561.84 262.96 561.84 262.96 541.99 282.81 541.99 282.81 530.65" style="fill:#c4c4c4"/><polygon points="351.81 530.65 331.96 530.65 331.96 510.8 320.62 510.8 320.62 530.65 300.76 530.65 300.76 541.99 320.62 541.99 320.62 561.84 331.96 561.84 331.96 541.99 351.81 541.99 351.81 530.65" style="fill:#c4c4c4"/><polygon points="422.81 530.65 402.96 530.65 402.96 510.8 391.62 510.8 391.62 530.65 371.76 530.65 371.76 541.99 391.62 541.99 391.62 561.84 402.96 561.84 402.96 541.99 422.81 541.99 422.81 530.65" style="fill:#c4c4c4"/><polygon points="492.81 530.65 472.96 530.65 472.96 510.8 461.62 510.8 461.62 530.65 441.76 530.65 441.76 541.99 461.62 541.99 461.62 561.84 472.96 561.84 472.96 541.99 492.81 541.99 492.81 530.65" style="fill:#c4c4c4"/><polygon points="563.81 530.65 543.96 530.65 543.96 510.8 532.62 510.8 532.62 530.65 512.76 530.65 512.76 541.99 532.62 541.99 532.62 561.84 543.96 561.84 543.96 541.99 563.81 541.99 563.81 530.65" style="fill:#c4c4c4"/><polygon points="631.81 530.65 611.96 530.65 611.96 510.8 600.62 510.8 600.62 530.65 580.76 530.65 580.76 541.99 600.62 541.99 600.62 561.84 611.96 561.84 611.96 541.99 631.81 541.99 631.81 530.65" style="fill:#c4c4c4"/><polygon points="702.81 530.65 682.96 530.65 682.96 510.8 671.62 510.8 671.62 530.65 651.76 530.65 651.76 541.99 671.62 541.99 671.62 561.84 682.96 561.84 682.96 541.99 702.81 541.99 702.81 530.65" style="fill:#c4c4c4"/><polygon points="772.81 530.65 752.96 530.65 752.96 510.8 741.62 510.8 741.62 530.65 721.76 530.65 721.76 541.99 741.62 541.99 741.62 561.84 752.96 561.84 752.96 541.99 772.81 541.99 772.81 530.65" style="fill:#c4c4c4"/><polygon points="843.81 530.65 823.96 530.65 823.96 510.8 812.62 510.8 812.62 530.65 792.76 530.65 792.76 541.99 812.62 541.99 812.62 561.84 823.96 561.84 823.96 541.99 843.81 541.99 843.81 530.65" style="fill:#c4c4c4"/><polygon points="912.81 530.65 892.96 530.65 892.96 510.8 881.62 510.8 881.62 530.65 861.76 530.65 861.76 541.99 881.62 541.99 881.62 561.84 892.96 561.84 892.96 541.99 912.81 541.99 912.81 530.65" style="fill:#c4c4c4"/><polygon points="983.81 530.65 963.96 530.65 963.96 510.8 952.62 510.8 952.62 530.65 932.76 530.65 932.76 541.99 952.62 541.99 952.62 561.84 963.96 561.84 963.96 541.99 983.81 541.99 983.81 530.65" style="fill:#c4c4c4"/><polygon points="70.81 600.65 50.96 600.65 50.96 580.79 39.62 580.79 39.62 600.65 19.76 600.65 19.76 611.99 39.62 611.99 39.62 631.84 50.96 631.84 50.96 611.99 70.81 611.99 70.81 600.65" style="fill:#c4c4c4"/><polygon points="141.81 600.65 121.96 600.65 121.96 580.79 110.61 580.79 110.61 600.65 90.76 600.65 90.76 611.99 110.61 611.99 110.61 631.84 121.96 631.84 121.96 611.99 141.81 611.99 141.81 600.65" style="fill:#c4c4c4"/><polygon points="211.81 600.65 191.96 600.65 191.96 580.79 180.62 580.79 180.62 600.65 160.76 600.65 160.76 611.99 180.62 611.99 180.62 631.84 191.96 631.84 191.96 611.99 211.81 611.99 211.81 600.65" style="fill:#c4c4c4"/><polygon points="282.81 600.65 262.96 600.65 262.96 580.79 251.62 580.79 251.62 600.65 231.76 600.65 231.76 611.99 251.62 611.99 251.62 631.84 262.96 631.84 262.96 611.99 282.81 611.99 282.81 600.65" style="fill:#c4c4c4"/><polygon points="351.81 600.65 331.96 600.65 331.96 580.79 320.62 580.79 320.62 600.65 300.76 600.65 300.76 611.99 320.62 611.99 320.62 631.84 331.96 631.84 331.96 611.99 351.81 611.99 351.81 600.65" style="fill:#c4c4c4"/><polygon points="422.81 600.65 402.96 600.65 402.96 580.79 391.62 580.79 391.62 600.65 371.76 600.65 371.76 611.99 391.62 611.99 391.62 631.84 402.96 631.84 402.96 611.99 422.81 611.99 422.81 600.65" style="fill:#c4c4c4"/><polygon points="492.81 600.65 472.96 600.65 472.96 580.79 461.62 580.79 461.62 600.65 441.76 600.65 441.76 611.99 461.62 611.99 461.62 631.84 472.96 631.84 472.96 611.99 492.81 611.99 492.81 600.65" style="fill:#c4c4c4"/><polygon points="563.81 600.65 543.96 600.65 543.96 580.79 532.62 580.79 532.62 600.65 512.76 600.65 512.76 611.99 532.62 611.99 532.62 631.84 543.96 631.84 543.96 611.99 563.81 611.99 563.81 600.65" style="fill:#c4c4c4"/><polygon points="631.81 600.65 611.96 600.65 611.96 580.79 600.62 580.79 600.62 600.65 580.76 600.65 580.76 611.99 600.62 611.99 600.62 631.84 611.96 631.84 611.96 611.99 631.81 611.99 631.81 600.65" style="fill:#c4c4c4"/><polygon points="702.81 600.65 682.96 600.65 682.96 580.79 671.62 580.79 671.62 600.65 651.76 600.65 651.76 611.99 671.62 611.99 671.62 631.84 682.96 631.84 682.96 611.99 702.81 611.99 702.81 600.65" style="fill:#c4c4c4"/><polygon points="772.81 600.65 752.96 600.65 752.96 580.79 741.62 580.79 741.62 600.65 721.76 600.65 721.76 611.99 741.62 611.99 741.62 631.84 752.96 631.84 752.96 611.99 772.81 611.99 772.81 600.65" style="fill:#c4c4c4"/><polygon points="843.81 600.65 823.96 600.65 823.96 580.79 812.62 580.79 812.62 600.65 792.76 600.65 792.76 611.99 812.62 611.99 812.62 631.84 823.96 631.84 823.96 611.99 843.81 611.99 843.81 600.65" style="fill:#c4c4c4"/><polygon points="912.81 600.65 892.96 600.65 892.96 580.79 881.62 580.79 881.62 600.65 861.76 600.65 861.76 611.99 881.62 611.99 881.62 631.84 892.96 631.84 892.96 611.99 912.81 611.99 912.81 600.65" style="fill:#c4c4c4"/><polygon points="983.81 600.65 963.96 600.65 963.96 580.79 952.62 580.79 952.62 600.65 932.76 600.65 932.76 611.99 952.62 611.99 952.62 631.84 963.96 631.84 963.96 611.99 983.81 611.99 983.81 600.65" style="fill:#c4c4c4"/><polygon points="70.81 669.65 50.96 669.65 50.96 649.79 39.62 649.79 39.62 669.65 19.76 669.65 19.76 680.99 39.62 680.99 39.62 700.84 50.96 700.84 50.96 680.99 70.81 680.99 70.81 669.65" style="fill:#c4c4c4"/><polygon points="141.81 669.65 121.96 669.65 121.96 649.79 110.61 649.79 110.61 669.65 90.76 669.65 90.76 680.99 110.61 680.99 110.61 700.84 121.96 700.84 121.96 680.99 141.81 680.99 141.81 669.65" style="fill:#c4c4c4"/><polygon points="211.81 669.65 191.96 669.65 191.96 649.79 180.62 649.79 180.62 669.65 160.76 669.65 160.76 680.99 180.62 680.99 180.62 700.84 191.96 700.84 191.96 680.99 211.81 680.99 211.81 669.65" style="fill:#c4c4c4"/><polygon points="282.81 669.65 262.96 669.65 262.96 649.79 251.62 649.79 251.62 669.65 231.76 669.65 231.76 680.99 251.62 680.99 251.62 700.84 262.96 700.84 262.96 680.99 282.81 680.99 282.81 669.65" style="fill:#c4c4c4"/><polygon points="351.81 669.65 331.96 669.65 331.96 649.79 320.62 649.79 320.62 669.65 300.76 669.65 300.76 680.99 320.62 680.99 320.62 700.84 331.96 700.84 331.96 680.99 351.81 680.99 351.81 669.65" style="fill:#c4c4c4"/><polygon points="422.81 669.65 402.96 669.65 402.96 649.79 391.62 649.79 391.62 669.65 371.76 669.65 371.76 680.99 391.62 680.99 391.62 700.84 402.96 700.84 402.96 680.99 422.81 680.99 422.81 669.65" style="fill:#c4c4c4"/><polygon points="492.81 669.65 472.96 669.65 472.96 649.79 461.62 649.79 461.62 669.65 441.76 669.65 441.76 680.99 461.62 680.99 461.62 700.84 472.96 700.84 472.96 680.99 492.81 680.99 492.81 669.65" style="fill:#c4c4c4"/><polygon points="563.81 669.65 543.96 669.65 543.96 649.79 532.62 649.79 532.62 669.65 512.76 669.65 512.76 680.99 532.62 680.99 532.62 700.84 543.96 700.84 543.96 680.99 563.81 680.99 563.81 669.65" style="fill:#c4c4c4"/><polygon points="631.81 669.65 611.96 669.65 611.96 649.79 600.62 649.79 600.62 669.65 580.76 669.65 580.76 680.99 600.62 680.99 600.62 700.84 611.96 700.84 611.96 680.99 631.81 680.99 631.81 669.65" style="fill:#c4c4c4"/><polygon points="702.81 669.65 682.96 669.65 682.96 649.79 671.62 649.79 671.62 669.65 651.76 669.65 651.76 680.99 671.62 680.99 671.62 700.84 682.96 700.84 682.96 680.99 702.81 680.99 702.81 669.65" style="fill:#c4c4c4"/><polygon points="772.81 669.65 752.96 669.65 752.96 649.79 741.62 649.79 741.62 669.65 721.76 669.65 721.76 680.99 741.62 680.99 741.62 700.84 752.96 700.84 752.96 680.99 772.81 680.99 772.81 669.65" style="fill:#c4c4c4"/><polygon points="843.81 669.65 823.96 669.65 823.96 649.79 812.62 649.79 812.62 669.65 792.76 669.65 792.76 680.99 812.62 680.99 812.62 700.84 823.96 700.84 823.96 680.99 843.81 680.99 843.81 669.65" style="fill:#c4c4c4"/><polygon points="912.81 669.65 892.96 669.65 892.96 649.79 881.62 649.79 881.62 669.65 861.76 669.65 861.76 680.99 881.62 680.99 881.62 700.84 892.96 700.84 892.96 680.99 912.81 680.99 912.81 669.65" style="fill:#c4c4c4"/><polygon points="983.81 669.65 963.96 669.65 963.96 649.79 952.62 649.79 952.62 669.65 932.76 669.65 932.76 680.99 952.62 680.99 952.62 700.84 963.96 700.84 963.96 680.99 983.81 680.99 983.81 669.65" style="fill:#c4c4c4"/><polygon points="70.81 739.65 50.96 739.65 50.96 719.79 39.62 719.79 39.62 739.65 19.76 739.65 19.76 750.99 39.62 750.99 39.62 770.84 50.96 770.84 50.96 750.99 70.81 750.99 70.81 739.65" style="fill:#c4c4c4"/><polygon points="141.81 739.65 121.96 739.65 121.96 719.79 110.61 719.79 110.61 739.65 90.76 739.65 90.76 750.99 110.61 750.99 110.61 770.84 121.96 770.84 121.96 750.99 141.81 750.99 141.81 739.65" style="fill:#c4c4c4"/><polygon points="211.81 739.65 191.96 739.65 191.96 719.79 180.62 719.79 180.62 739.65 160.76 739.65 160.76 750.99 180.62 750.99 180.62 770.84 191.96 770.84 191.96 750.99 211.81 750.99 211.81 739.65" style="fill:#c4c4c4"/><polygon points="282.81 739.65 262.96 739.65 262.96 719.79 251.62 719.79 251.62 739.65 231.76 739.65 231.76 750.99 251.62 750.99 251.62 770.84 262.96 770.84 262.96 750.99 282.81 750.99 282.81 739.65" style="fill:#c4c4c4"/><polygon points="351.81 739.65 331.96 739.65 331.96 719.79 320.62 719.79 320.62 739.65 300.76 739.65 300.76 750.99 320.62 750.99 320.62 770.84 331.96 770.84 331.96 750.99 351.81 750.99 351.81 739.65" style="fill:#c4c4c4"/><polygon points="422.81 739.65 402.96 739.65 402.96 719.79 391.62 719.79 391.62 739.65 371.76 739.65 371.76 750.99 391.62 750.99 391.62 770.84 402.96 770.84 402.96 750.99 422.81 750.99 422.81 739.65" style="fill:#c4c4c4"/><polygon points="492.81 739.65 472.96 739.65 472.96 719.79 461.62 719.79 461.62 739.65 441.76 739.65 441.76 750.99 461.62 750.99 461.62 770.84 472.96 770.84 472.96 750.99 492.81 750.99 492.81 739.65" style="fill:#c4c4c4"/><polygon points="563.81 739.65 543.96 739.65 543.96 719.79 532.62 719.79 532.62 739.65 512.76 739.65 512.76 750.99 532.62 750.99 532.62 770.84 543.96 770.84 543.96 750.99 563.81 750.99 563.81 739.65" style="fill:#c4c4c4"/><polygon points="631.81 739.65 611.96 739.65 611.96 719.79 600.62 719.79 600.62 739.65 580.76 739.65 580.76 750.99 600.62 750.99 600.62 770.84 611.96 770.84 611.96 750.99 631.81 750.99 631.81 739.65" style="fill:#c4c4c4"/><polygon points="702.81 739.65 682.96 739.65 682.96 719.79 671.62 719.79 671.62 739.65 651.76 739.65 651.76 750.99 671.62 750.99 671.62 770.84 682.96 770.84 682.96 750.99 702.81 750.99 702.81 739.65" style="fill:#c4c4c4"/><polygon points="772.81 739.65 752.96 739.65 752.96 719.79 741.62 719.79 741.62 739.65 721.76 739.65 721.76 750.99 741.62 750.99 741.62 770.84 752.96 770.84 752.96 750.99 772.81 750.99 772.81 739.65" style="fill:#c4c4c4"/><polygon points="843.81 739.65 823.96 739.65 823.96 719.79 812.62 719.79 812.62 739.65 792.76 739.65 792.76 750.99 812.62 750.99 812.62 770.84 823.96 770.84 823.96 750.99 843.81 750.99 843.81 739.65" style="fill:#c4c4c4"/><polygon points="912.81 739.65 892.96 739.65 892.96 719.79 881.62 719.79 881.62 739.65 861.76 739.65 861.76 750.99 881.62 750.99 881.62 770.84 892.96 770.84 892.96 750.99 912.81 750.99 912.81 739.65" style="fill:#c4c4c4"/><polygon points="983.81 739.65 963.96 739.65 963.96 719.79 952.62 719.79 952.62 739.65 932.76 739.65 932.76 750.99 952.62 750.99 952.62 770.84 963.96 770.84 963.96 750.99 983.81 750.99 983.81 739.65" style="fill:#c4c4c4"/><polygon points="70.81 670.65 50.96 670.65 50.96 650.79 39.62 650.79 39.62 670.65 19.76 670.65 19.76 681.99 39.62 681.99 39.62 701.84 50.96 701.84 50.96 681.99 70.81 681.99 70.81 670.65" style="fill:#c4c4c4"/><polygon points="141.81 670.65 121.96 670.65 121.96 650.79 110.61 650.79 110.61 670.65 90.76 670.65 90.76 681.99 110.61 681.99 110.61 701.84 121.96 701.84 121.96 681.99 141.81 681.99 141.81 670.65" style="fill:#c4c4c4"/><polygon points="211.81 670.65 191.96 670.65 191.96 650.79 180.62 650.79 180.62 670.65 160.76 670.65 160.76 681.99 180.62 681.99 180.62 701.84 191.96 701.84 191.96 681.99 211.81 681.99 211.81 670.65" style="fill:#c4c4c4"/><polygon points="282.81 670.65 262.96 670.65 262.96 650.79 251.62 650.79 251.62 670.65 231.76 670.65 231.76 681.99 251.62 681.99 251.62 701.84 262.96 701.84 262.96 681.99 282.81 681.99 282.81 670.65" style="fill:#c4c4c4"/><polygon points="351.81 670.65 331.96 670.65 331.96 650.79 320.62 650.79 320.62 670.65 300.76 670.65 300.76 681.99 320.62 681.99 320.62 701.84 331.96 701.84 331.96 681.99 351.81 681.99 351.81 670.65" style="fill:#c4c4c4"/><polygon points="422.81 670.65 402.96 670.65 402.96 650.79 391.62 650.79 391.62 670.65 371.76 670.65 371.76 681.99 391.62 681.99 391.62 701.84 402.96 701.84 402.96 681.99 422.81 681.99 422.81 670.65" style="fill:#c4c4c4"/><polygon points="492.81 670.65 472.96 670.65 472.96 650.79 461.62 650.79 461.62 670.65 441.76 670.65 441.76 681.99 461.62 681.99 461.62 701.84 472.96 701.84 472.96 681.99 492.81 681.99 492.81 670.65" style="fill:#c4c4c4"/><polygon points="563.81 670.65 543.96 670.65 543.96 650.79 532.62 650.79 532.62 670.65 512.76 670.65 512.76 681.99 532.62 681.99 532.62 701.84 543.96 701.84 543.96 681.99 563.81 681.99 563.81 670.65" style="fill:#c4c4c4"/><polygon points="631.81 670.65 611.96 670.65 611.96 650.79 600.62 650.79 600.62 670.65 580.76 670.65 580.76 681.99 600.62 681.99 600.62 701.84 611.96 701.84 611.96 681.99 631.81 681.99 631.81 670.65" style="fill:#c4c4c4"/><polygon points="702.81 670.65 682.96 670.65 682.96 650.79 671.62 650.79 671.62 670.65 651.76 670.65 651.76 681.99 671.62 681.99 671.62 701.84 682.96 701.84 682.96 681.99 702.81 681.99 702.81 670.65" style="fill:#c4c4c4"/><polygon points="772.81 670.65 752.96 670.65 752.96 650.79 741.62 650.79 741.62 670.65 721.76 670.65 721.76 681.99 741.62 681.99 741.62 701.84 752.96 701.84 752.96 681.99 772.81 681.99 772.81 670.65" style="fill:#c4c4c4"/><polygon points="843.81 670.65 823.96 670.65 823.96 650.79 812.62 650.79 812.62 670.65 792.76 670.65 792.76 681.99 812.62 681.99 812.62 701.84 823.96 701.84 823.96 681.99 843.81 681.99 843.81 670.65" style="fill:#c4c4c4"/><polygon points="912.81 670.65 892.96 670.65 892.96 650.79 881.62 650.79 881.62 670.65 861.76 670.65 861.76 681.99 881.62 681.99 881.62 701.84 892.96 701.84 892.96 681.99 912.81 681.99 912.81 670.65" style="fill:#c4c4c4"/><polygon points="983.81 670.65 963.96 670.65 963.96 650.79 952.62 650.79 952.62 670.65 932.76 670.65 932.76 681.99 952.62 681.99 952.62 701.84 963.96 701.84 963.96 681.99 983.81 681.99 983.81 670.65" style="fill:#c4c4c4"/><polygon points="70.81 740.65 50.96 740.65 50.96 720.79 39.62 720.79 39.62 740.65 19.76 740.65 19.76 751.99 39.62 751.99 39.62 771.84 50.96 771.84 50.96 751.99 70.81 751.99 70.81 740.65" style="fill:#c4c4c4"/><polygon points="141.81 740.65 121.96 740.65 121.96 720.79 110.61 720.79 110.61 740.65 90.76 740.65 90.76 751.99 110.61 751.99 110.61 771.84 121.96 771.84 121.96 751.99 141.81 751.99 141.81 740.65" style="fill:#c4c4c4"/><polygon points="211.81 740.65 191.96 740.65 191.96 720.79 180.62 720.79 180.62 740.65 160.76 740.65 160.76 751.99 180.62 751.99 180.62 771.84 191.96 771.84 191.96 751.99 211.81 751.99 211.81 740.65" style="fill:#c4c4c4"/><polygon points="282.81 740.65 262.96 740.65 262.96 720.79 251.62 720.79 251.62 740.65 231.76 740.65 231.76 751.99 251.62 751.99 251.62 771.84 262.96 771.84 262.96 751.99 282.81 751.99 282.81 740.65" style="fill:#c4c4c4"/><polygon points="351.81 740.65 331.96 740.65 331.96 720.79 320.62 720.79 320.62 740.65 300.76 740.65 300.76 751.99 320.62 751.99 320.62 771.84 331.96 771.84 331.96 751.99 351.81 751.99 351.81 740.65" style="fill:#c4c4c4"/><polygon points="422.81 740.65 402.96 740.65 402.96 720.79 391.62 720.79 391.62 740.65 371.76 740.65 371.76 751.99 391.62 751.99 391.62 771.84 402.96 771.84 402.96 751.99 422.81 751.99 422.81 740.65" style="fill:#c4c4c4"/><polygon points="492.81 740.65 472.96 740.65 472.96 720.79 461.62 720.79 461.62 740.65 441.76 740.65 441.76 751.99 461.62 751.99 461.62 771.84 472.96 771.84 472.96 751.99 492.81 751.99 492.81 740.65" style="fill:#c4c4c4"/><polygon points="563.81 740.65 543.96 740.65 543.96 720.79 532.62 720.79 532.62 740.65 512.76 740.65 512.76 751.99 532.62 751.99 532.62 771.84 543.96 771.84 543.96 751.99 563.81 751.99 563.81 740.65" style="fill:#c4c4c4"/><polygon points="631.81 740.65 611.96 740.65 611.96 720.79 600.62 720.79 600.62 740.65 580.76 740.65 580.76 751.99 600.62 751.99 600.62 771.84 611.96 771.84 611.96 751.99 631.81 751.99 631.81 740.65" style="fill:#c4c4c4"/><polygon points="702.81 740.65 682.96 740.65 682.96 720.79 671.62 720.79 671.62 740.65 651.76 740.65 651.76 751.99 671.62 751.99 671.62 771.84 682.96 771.84 682.96 751.99 702.81 751.99 702.81 740.65" style="fill:#c4c4c4"/><polygon points="772.81 740.65 752.96 740.65 752.96 720.79 741.62 720.79 741.62 740.65 721.76 740.65 721.76 751.99 741.62 751.99 741.62 771.84 752.96 771.84 752.96 751.99 772.81 751.99 772.81 740.65" style="fill:#c4c4c4"/><polygon points="843.81 740.65 823.96 740.65 823.96 720.79 812.62 720.79 812.62 740.65 792.76 740.65 792.76 751.99 812.62 751.99 812.62 771.84 823.96 771.84 823.96 751.99 843.81 751.99 843.81 740.65" style="fill:#c4c4c4"/><polygon points="912.81 740.65 892.96 740.65 892.96 720.79 881.62 720.79 881.62 740.65 861.76 740.65 861.76 751.99 881.62 751.99 881.62 771.84 892.96 771.84 892.96 751.99 912.81 751.99 912.81 740.65" style="fill:#c4c4c4"/><polygon points="983.81 740.65 963.96 740.65 963.96 720.79 952.62 720.79 952.62 740.65 932.76 740.65 932.76 751.99 952.62 751.99 952.62 771.84 963.96 771.84 963.96 751.99 983.81 751.99 983.81 740.65" style="fill:#c4c4c4"/><polygon points="70.81 811.65 50.96 811.65 50.96 791.79 39.62 791.79 39.62 811.65 19.76 811.65 19.76 822.99 39.62 822.99 39.62 842.84 50.96 842.84 50.96 822.99 70.81 822.99 70.81 811.65" style="fill:#c4c4c4"/><polygon points="141.81 811.65 121.96 811.65 121.96 791.79 110.61 791.79 110.61 811.65 90.76 811.65 90.76 822.99 110.61 822.99 110.61 842.84 121.96 842.84 121.96 822.99 141.81 822.99 141.81 811.65" style="fill:#c4c4c4"/><polygon points="211.81 811.65 191.96 811.65 191.96 791.79 180.62 791.79 180.62 811.65 160.76 811.65 160.76 822.99 180.62 822.99 180.62 842.84 191.96 842.84 191.96 822.99 211.81 822.99 211.81 811.65" style="fill:#c4c4c4"/><polygon points="282.81 811.65 262.96 811.65 262.96 791.79 251.62 791.79 251.62 811.65 231.76 811.65 231.76 822.99 251.62 822.99 251.62 842.84 262.96 842.84 262.96 822.99 282.81 822.99 282.81 811.65" style="fill:#c4c4c4"/><polygon points="351.81 811.65 331.96 811.65 331.96 791.79 320.62 791.79 320.62 811.65 300.76 811.65 300.76 822.99 320.62 822.99 320.62 842.84 331.96 842.84 331.96 822.99 351.81 822.99 351.81 811.65" style="fill:#c4c4c4"/><polygon points="422.81 811.65 402.96 811.65 402.96 791.79 391.62 791.79 391.62 811.65 371.76 811.65 371.76 822.99 391.62 822.99 391.62 842.84 402.96 842.84 402.96 822.99 422.81 822.99 422.81 811.65" style="fill:#c4c4c4"/><polygon points="492.81 811.65 472.96 811.65 472.96 791.79 461.62 791.79 461.62 811.65 441.76 811.65 441.76 822.99 461.62 822.99 461.62 842.84 472.96 842.84 472.96 822.99 492.81 822.99 492.81 811.65" style="fill:#c4c4c4"/><polygon points="563.81 811.65 543.96 811.65 543.96 791.79 532.62 791.79 532.62 811.65 512.76 811.65 512.76 822.99 532.62 822.99 532.62 842.84 543.96 842.84 543.96 822.99 563.81 822.99 563.81 811.65" style="fill:#c4c4c4"/><polygon points="631.81 811.65 611.96 811.65 611.96 791.79 600.62 791.79 600.62 811.65 580.76 811.65 580.76 822.99 600.62 822.99 600.62 842.84 611.96 842.84 611.96 822.99 631.81 822.99 631.81 811.65" style="fill:#c4c4c4"/><polygon points="702.81 811.65 682.96 811.65 682.96 791.79 671.62 791.79 671.62 811.65 651.76 811.65 651.76 822.99 671.62 822.99 671.62 842.84 682.96 842.84 682.96 822.99 702.81 822.99 702.81 811.65" style="fill:#c4c4c4"/><polygon points="772.81 811.65 752.96 811.65 752.96 791.79 741.62 791.79 741.62 811.65 721.76 811.65 721.76 822.99 741.62 822.99 741.62 842.84 752.96 842.84 752.96 822.99 772.81 822.99 772.81 811.65" style="fill:#c4c4c4"/><polygon points="843.81 811.65 823.96 811.65 823.96 791.79 812.62 791.79 812.62 811.65 792.76 811.65 792.76 822.99 812.62 822.99 812.62 842.84 823.96 842.84 823.96 822.99 843.81 822.99 843.81 811.65" style="fill:#c4c4c4"/><polygon points="912.81 811.65 892.96 811.65 892.96 791.79 881.62 791.79 881.62 811.65 861.76 811.65 861.76 822.99 881.62 822.99 881.62 842.84 892.96 842.84 892.96 822.99 912.81 822.99 912.81 811.65" style="fill:#c4c4c4"/><polygon points="983.81 811.65 963.96 811.65 963.96 791.79 952.62 791.79 952.62 811.65 932.76 811.65 932.76 822.99 952.62 822.99 952.62 842.84 963.96 842.84 963.96 822.99 983.81 822.99 983.81 811.65" style="fill:#c4c4c4"/><polygon points="70.81 881.65 50.96 881.65 50.96 861.79 39.62 861.79 39.62 881.65 19.76 881.65 19.76 892.99 39.62 892.99 39.62 912.84 50.96 912.84 50.96 892.99 70.81 892.99 70.81 881.65" style="fill:#c4c4c4"/><polygon points="141.81 881.65 121.96 881.65 121.96 861.79 110.61 861.79 110.61 881.65 90.76 881.65 90.76 892.99 110.61 892.99 110.61 912.84 121.96 912.84 121.96 892.99 141.81 892.99 141.81 881.65" style="fill:#c4c4c4"/><polygon points="211.81 881.65 191.96 881.65 191.96 861.79 180.62 861.79 180.62 881.65 160.76 881.65 160.76 892.99 180.62 892.99 180.62 912.84 191.96 912.84 191.96 892.99 211.81 892.99 211.81 881.65" style="fill:#c4c4c4"/><polygon points="282.81 881.65 262.96 881.65 262.96 861.79 251.62 861.79 251.62 881.65 231.76 881.65 231.76 892.99 251.62 892.99 251.62 912.84 262.96 912.84 262.96 892.99 282.81 892.99 282.81 881.65" style="fill:#c4c4c4"/><polygon points="351.81 881.65 331.96 881.65 331.96 861.79 320.62 861.79 320.62 881.65 300.76 881.65 300.76 892.99 320.62 892.99 320.62 912.84 331.96 912.84 331.96 892.99 351.81 892.99 351.81 881.65" style="fill:#c4c4c4"/><polygon points="422.81 881.65 402.96 881.65 402.96 861.79 391.62 861.79 391.62 881.65 371.76 881.65 371.76 892.99 391.62 892.99 391.62 912.84 402.96 912.84 402.96 892.99 422.81 892.99 422.81 881.65" style="fill:#c4c4c4"/><polygon points="492.81 881.65 472.96 881.65 472.96 861.79 461.62 861.79 461.62 881.65 441.76 881.65 441.76 892.99 461.62 892.99 461.62 912.84 472.96 912.84 472.96 892.99 492.81 892.99 492.81 881.65" style="fill:#c4c4c4"/><polygon points="563.81 881.65 543.96 881.65 543.96 861.79 532.62 861.79 532.62 881.65 512.76 881.65 512.76 892.99 532.62 892.99 532.62 912.84 543.96 912.84 543.96 892.99 563.81 892.99 563.81 881.65" style="fill:#c4c4c4"/><polygon points="631.81 881.65 611.96 881.65 611.96 861.79 600.62 861.79 600.62 881.65 580.76 881.65 580.76 892.99 600.62 892.99 600.62 912.84 611.96 912.84 611.96 892.99 631.81 892.99 631.81 881.65" style="fill:#c4c4c4"/><polygon points="702.81 881.65 682.96 881.65 682.96 861.79 671.62 861.79 671.62 881.65 651.76 881.65 651.76 892.99 671.62 892.99 671.62 912.84 682.96 912.84 682.96 892.99 702.81 892.99 702.81 881.65" style="fill:#c4c4c4"/><polygon points="772.81 881.65 752.96 881.65 752.96 861.79 741.62 861.79 741.62 881.65 721.76 881.65 721.76 892.99 741.62 892.99 741.62 912.84 752.96 912.84 752.96 892.99 772.81 892.99 772.81 881.65" style="fill:#c4c4c4"/><polygon points="843.81 881.65 823.96 881.65 823.96 861.79 812.62 861.79 812.62 881.65 792.76 881.65 792.76 892.99 812.62 892.99 812.62 912.84 823.96 912.84 823.96 892.99 843.81 892.99 843.81 881.65" style="fill:#c4c4c4"/><polygon points="912.81 881.65 892.96 881.65 892.96 861.79 881.62 861.79 881.62 881.65 861.76 881.65 861.76 892.99 881.62 892.99 881.62 912.84 892.96 912.84 892.96 892.99 912.81 892.99 912.81 881.65" style="fill:#c4c4c4"/><polygon points="983.81 881.65 963.96 881.65 963.96 861.79 952.62 861.79 952.62 881.65 932.76 881.65 932.76 892.99 952.62 892.99 952.62 912.84 963.96 912.84 963.96 892.99 983.81 892.99 983.81 881.65" style="fill:#c4c4c4"/><polygon points="70.81 952.65 50.96 952.65 50.96 932.79 39.62 932.79 39.62 952.65 19.76 952.65 19.76 963.99 39.62 963.99 39.62 983.84 50.96 983.84 50.96 963.99 70.81 963.99 70.81 952.65" style="fill:#c4c4c4"/><polygon points="141.81 952.65 121.96 952.65 121.96 932.79 110.61 932.79 110.61 952.65 90.76 952.65 90.76 963.99 110.61 963.99 110.61 983.84 121.96 983.84 121.96 963.99 141.81 963.99 141.81 952.65" style="fill:#c4c4c4"/><polygon points="211.81 952.65 191.96 952.65 191.96 932.79 180.62 932.79 180.62 952.65 160.76 952.65 160.76 963.99 180.62 963.99 180.62 983.84 191.96 983.84 191.96 963.99 211.81 963.99 211.81 952.65" style="fill:#c4c4c4"/><polygon points="282.81 952.65 262.96 952.65 262.96 932.79 251.62 932.79 251.62 952.65 231.76 952.65 231.76 963.99 251.62 963.99 251.62 983.84 262.96 983.84 262.96 963.99 282.81 963.99 282.81 952.65" style="fill:#c4c4c4"/><polygon points="351.81 952.65 331.96 952.65 331.96 932.79 320.62 932.79 320.62 952.65 300.76 952.65 300.76 963.99 320.62 963.99 320.62 983.84 331.96 983.84 331.96 963.99 351.81 963.99 351.81 952.65" style="fill:#c4c4c4"/><polygon points="422.81 952.65 402.96 952.65 402.96 932.79 391.62 932.79 391.62 952.65 371.76 952.65 371.76 963.99 391.62 963.99 391.62 983.84 402.96 983.84 402.96 963.99 422.81 963.99 422.81 952.65" style="fill:#c4c4c4"/><polygon points="492.81 952.65 472.96 952.65 472.96 932.79 461.62 932.79 461.62 952.65 441.76 952.65 441.76 963.99 461.62 963.99 461.62 983.84 472.96 983.84 472.96 963.99 492.81 963.99 492.81 952.65" style="fill:#c4c4c4"/><polygon points="563.81 952.65 543.96 952.65 543.96 932.79 532.62 932.79 532.62 952.65 512.76 952.65 512.76 963.99 532.62 963.99 532.62 983.84 543.96 983.84 543.96 963.99 563.81 963.99 563.81 952.65" style="fill:#c4c4c4"/><polygon points="631.81 952.65 611.96 952.65 611.96 932.79 600.62 932.79 600.62 952.65 580.76 952.65 580.76 963.99 600.62 963.99 600.62 983.84 611.96 983.84 611.96 963.99 631.81 963.99 631.81 952.65" style="fill:#c4c4c4"/><polygon points="702.81 952.65 682.96 952.65 682.96 932.79 671.62 932.79 671.62 952.65 651.76 952.65 651.76 963.99 671.62 963.99 671.62 983.84 682.96 983.84 682.96 963.99 702.81 963.99 702.81 952.65" style="fill:#c4c4c4"/><polygon points="772.81 952.65 752.96 952.65 752.96 932.79 741.62 932.79 741.62 952.65 721.76 952.65 721.76 963.99 741.62 963.99 741.62 983.84 752.96 983.84 752.96 963.99 772.81 963.99 772.81 952.65" style="fill:#c4c4c4"/><polygon points="843.81 952.65 823.96 952.65 823.96 932.79 812.62 932.79 812.62 952.65 792.76 952.65 792.76 963.99 812.62 963.99 812.62 983.84 823.96 983.84 823.96 963.99 843.81 963.99 843.81 952.65" style="fill:#c4c4c4"/><polygon points="912.81 952.65 892.96 952.65 892.96 932.79 881.62 932.79 881.62 952.65 861.76 952.65 861.76 963.99 881.62 963.99 881.62 983.84 892.96 983.84 892.96 963.99 912.81 963.99 912.81 952.65" style="fill:#c4c4c4"/><polygon points="983.81 952.65 963.96 952.65 963.96 932.79 952.62 932.79 952.62 952.65 932.76 952.65 932.76 963.99 952.62 963.99 952.62 983.84 963.96 983.84 963.96 963.99 983.81 963.99 983.81 952.65" style="fill:#c4c4c4"/></g></g></svg>